<svg xmlns="http://www.w3.org/2000/svg" xmlns:xlink="http://www.w3.org/1999/xlink" xml:space="preserve" id="Camada_1" x="0" y="0" style="enable-background:new 0 0 432.92 538.4" version="1.1" viewBox="0 0 432.92 538.4"><style>.st2,.st5{fill-rule:evenodd;clip-rule:evenodd}.st2{fill:#062957}.st5{display:none}.st31{fill:#fff;stroke:#000;stroke-width:.01;stroke-miterlimit:10}</style><g id="Escudo"><linearGradient id="SVGID_1_" x1="216.458" x2="216.458" y1="596.184" y2="65.357" gradientUnits="userSpaceOnUse"><stop offset="0" style="stop-color:#d49529"/><stop offset=".58" style="stop-color:#fdf8d3"/><stop offset="1" style="stop-color:#d49529"/></linearGradient><path d="M432.89 214.15c1.22-85.65-37.79-177.12-37.79-177.12S322.58 0 216.08 0c-112 0-178 36.82-178 36.82S-2.89 131.7.16 214.49C8.36 436.9 216.81 538.4 216.81 538.4s213.03-109.86 216.08-324.25z" style="fill-rule:evenodd;clip-rule:evenodd;fill:url(#SVGID_1_)"/><path d="M411.68 240.64c6.38-70.54-18.14-134.82-20.86-141.58-33.39-26.63-99.2-45.04-174.49-45.04-75.22 0-141.21 18.26-174.51 44.88 0 0-28.11 67.39-21.35 142.03C37.43 427.94 216.28 521.8 216.28 521.8s178.44-94.17 195.4-281.16z" style="fill-rule:evenodd;clip-rule:evenodd;fill:#fff"/><path d="M401.32 243.14c6.05-66.81-17.17-127.67-19.75-134.08-31.62-25.21-93.93-42.65-165.25-42.65-71.23 0-133.71 17.29-165.25 42.51 0 0-26.62 63.83-20.22 134.51C46.91 420.51 216.28 509.4 216.28 509.4s168.98-89.16 185.04-266.26z" class="st2"/></g><g id="Bola"><linearGradient id="SVGID_2_" x1="293.511" x2="348.613" y1="310.616" y2="310.616" gradientUnits="userSpaceOnUse"><stop offset="0" style="stop-color:#d49529"/><stop offset=".58" style="stop-color:#fdf8d3"/><stop offset="1" style="stop-color:#d49529"/></linearGradient><linearGradient id="SVGID_3_" x1="297.651" x2="344.343" y1="310.716" y2="310.716" gradientUnits="userSpaceOnUse"><stop offset="0" style="stop-color:#d49529"/><stop offset=".58" style="stop-color:#fdf8d3"/><stop offset="1" style="stop-color:#d49529"/></linearGradient><path d="M310.16 328.26c-2-.74-5.94-4.83-7.08-6.68-.66.51-1.28 1.02-1.85 1.55 2.9 4.63 7.42 8.25 12.91 9.92-1.32-1.08-2.95-2.71-3.98-4.79zm7.23-4.03c.24.1.65.26 1.15.42.88.31 2.28.73 3.87 1.03 1.87.33 3.61.41 5.17.21 1.9-1.75 3.95-4.16 6.31-7.39-.11-3.33-2.41-7.45-3.39-9.09-.11-.17-.18-.31-.27-.44-.41-.08-.83-.15-1.24-.23-1.91-.34-3.59-.55-5.22-.77-1-.13-1.92-.24-2.88-.4-.14.12-.37.3-.67.57-.73.61-1.41 1.26-2.06 1.9-1.34 1.37-3.13 3.41-4.03 5.44.81 2.76 1.77 5.9 3.18 8.73.03 0 .05.01.08.02zm-3.25 8.82c.05.01.08.03.11.03-.03 0-.07-.02-.11-.03zm-4.95-36.63c-2.16 2.21-4.44 4.68-6.44 7.65.01.18.06.47.11.86.08.63.26 1.62.51 2.74.39 1.77 1.11 4.23 2.3 6.04.48.07 1 .18 1.6.28.79.15 1.62.29 2.45.43 1.3.23 2.64.46 3.87.69 1.58-3.47 5.42-6.81 6.78-7.92-.67-2.22-1.2-4.59-1.72-6.87-.14-.68-.3-1.4-.47-2.1-1.3-.71-3.18-1.33-5.08-1.66h-.01l.04-.13h-.01l-.03.13c-1.59-.3-3.01-.36-3.9-.14zm18.26 30.1c-1.57.18-3.3.11-5.17-.23a26.75 26.75 0 0 1-5.09-1.48c-1.63 1.55-4.84 3.15-6.29 3.46 1.32 2.49 3.49 4.28 4.84 5.2.39.09.78.17 1.17.23 3.06.54 6.11.48 8.98-.13.25-.13.47-.27.7-.39 1.31-.77 2.51-1.59 3.53-2.49-1.03-.64-1.9-2.01-2.67-4.17zm-26.56-3.93c-.01 0-.01-.02-.02-.02.01.01.01.02.02.02zm4.17-8.7c-2.06-3.24-2.77-8.28-2.94-9.66-.75-.17-2.18-.55-3.22-1.04-.38 1.1-.68 2.24-.88 3.42-1.02 5.73.14 11.35 2.86 15.97.62-.54 1.26-1.06 1.94-1.59-.24-2.67 1.26-5.53 2.24-7.1zm36.21-14.82c.02.05.04.09.06.13-.01-.04-.04-.08-.06-.13zm-14.24-4.99c1.76.72 6.21 4.62 7.36 6.13 2.63-.01 4.92.41 6.67 1.23.04-.45.09-.9.12-1.3.04-.41.08-.77.1-1.07a23.327 23.327 0 0 0-13.43-10.7c-.55.2-1.13.37-1.69.43.33 1.22.78 3.43.87 5.28zm-17.76 1.69c.96-.18 2.34-.12 3.94.17 1.92.34 3.87.98 5.23 1.7 1.24-.82 5.74-3.14 7.95-3.56-.09-1.88-.59-4.25-.9-5.4-.75-.35-1.48-.77-2.24-1.21l-.01-.02c-5.08-.48-9.98.7-14.11 3.17-.23 1.75-.11 3.85.14 5.15zm31.42 23.53c-.02 2.07-.59 4.22-1.72 6.38 2.52-3.01 4.31-6.7 5.05-10.84.17-.98.29-1.95.32-2.93-.43 1.93-1.47 5.08-3.65 7.39zm-12.6 13.69c2.52-.78 4.83-1.99 6.91-3.55-1.62.87-3.04 1.24-4.19 1.49-.78.72-1.71 1.42-2.72 2.06zm6.41-32.15c-.59 2.89-1.92 5.68-3.69 7.87.94 1.52 3.49 5.93 3.7 9.6.16.04.35.07.54.12 1.48.27 4.06.46 5.15.5 2.64-2.76 3.53-6.91 3.76-8.13.02-.13.04-.23.04-.29-.29-2.73-1.7-6.29-2.88-8.31-.93-.48-2.03-.86-3.29-1.06-1.01-.21-2.14-.3-3.33-.3z" style="fill:url(#SVGID_3_)"/></g><g id="Leão"><defs><path id="SVGID_4_" d="M203.65 290.98s-.44 6.4-4.67 10.2c-4.23 3.79-10.3 5.64-10.74 6.5-.43.88-.11 4.69 2.92 9.62 3.03 4.92 10.1 2.12 15.84 4.61 5.75 2.48 8.24 7.76 8.91 9.36.69 1.61.79 2.56.79 2.56s-.62.24-3.6.18l-3.03-.04s-.38-2.86-3.34-5.53c-2.97-2.65-8-3.13-8-3.13s5.35 2.6 6.59 4.77c1.24 2.15 1.29 3.62 1.29 3.62s-2.48.81-9.13 0-11.3-2.14-11.3-2.14-8.04-9.75-10.85-15.18c-2.82-5.42-6.41-15.72-6.41-15.72l26.98-27.32 9.68 14.84-1.93 2.8z"/></defs><clipPath id="SVGID_5_"><use xlink:href="#SVGID_4_" style="overflow:visible"/></clipPath><linearGradient id="SVGID_6_" x1="175.773" x2="178.349" y1="304.412" y2="304.412" gradientTransform="matrix(6.6789 13.3703 -11.9424 5.9656 2649.177 -3867.925)" gradientUnits="userSpaceOnUse"><stop offset="0" style="stop-color:#d49529"/><stop offset=".58" style="stop-color:#fdf8d3"/><stop offset="1" style="stop-color:#d49529"/></linearGradient><path d="m148.07 292.71 30.41 60.85 59.09-29.5-30.4-60.85z" style="clip-path:url(#SVGID_5_);fill:url(#SVGID_6_)"/><defs><path id="SVGID_7_" d="M194.44 304.35c-3.09 1.74-5.9 2.75-6.19 3.33-.43.88-.1 4.69 2.92 9.62.28.45.59.84.93 1.18-5.11.9-11.93-11.61-11.93-11.61s.8-2.05 5.81-3.2c2.5-.57 5.78-.01 8.46.68"/></defs><clipPath id="SVGID_8_"><use xlink:href="#SVGID_7_" style="overflow:visible"/></clipPath><linearGradient id="SVGID_9_" x1="180.108" x2="183.691" y1="309.528" y2="309.528" gradientTransform="matrix(.819 5.1757 -3.999 .6328 1276.936 -820.993)" gradientUnits="userSpaceOnUse"><stop offset="0" style="stop-color:#d49529"/><stop offset=".58" style="stop-color:#fdf8d3"/><stop offset="1" style="stop-color:#d49529"/></linearGradient><path d="m177.65 303.5 2.87 18.06 16.42-2.6-2.85-18.06z" style="clip-path:url(#SVGID_8_);fill:url(#SVGID_9_)"/><defs><path id="SVGID_10_" d="M206.46 332.7c.16.62.17.98.17.98s-2.48.81-9.13 0-11.3-2.14-11.3-2.14-8.04-9.75-10.85-15.18c-2.82-5.42-6.41-15.72-6.41-15.72l1.59-1.79 2.23 3.58 6.33 2.45s-2.51 1.37-.74 6.73c1.76 5.36 9.53 14.71 9.53 14.71s3.67 1.34 5.83 1.6c2.15.26 5.99.54 7.51 2.18 1.51 1.64 1.52 2.6 1.52 2.6h3.72zm8.69-3.06c.36.68.62 1.25.78 1.61.69 1.61.79 2.56.79 2.56s-.62.24-3.6.18l-3.03-.04s-.38-2.86-3.34-5.53c-2.54-2.25-6.57-2.94-7.69-3.1-.54-.15-1-.26-1.26-.3-1.02-.18-1.86-.2-1.86-.2s2.14-1.4 7.45-.23c5.29 1.19 6.59 3.25 7.67 4.63 1.09 1.39 3.41 1.12 4.09.42z"/></defs><clipPath id="SVGID_11_"><use xlink:href="#SVGID_10_" style="overflow:visible"/></clipPath><linearGradient id="SVGID_12_" x1="178.448" x2="179.455" y1="301.571" y2="301.571" gradientTransform="matrix(-9.213 12.7374 -13.1346 -9.5002 5793.423 914.846)" gradientUnits="userSpaceOnUse"><stop offset="0" style="stop-color:#d49529"/><stop offset=".45" style="stop-color:#fdf8d3"/><stop offset="1" style="stop-color:#d49529"/></linearGradient><path d="m185.35 276.16-33.34 46.08 48.3 34.92 33.32-46.06z" style="clip-path:url(#SVGID_11_);fill:url(#SVGID_12_)"/><defs><path id="SVGID_13_" d="M287.93 277.43c4.09-5.24 7.14-9.49 7.14-9.49s-2.83-5.77-6.04-12.67c-2.11-1.76-4.22-3.52-6.32-5.3.54 1.47 1.07 2.92 1.54 4.41.44 1.33 1.02 2.68 1.55 3.98.72 1.79 1.4 3.58 1.93 5.44 1.29 4.42 1.74 8.99.26 13.44l-.06.19z"/></defs><clipPath id="SVGID_14_"><use xlink:href="#SVGID_13_" style="overflow:visible"/></clipPath><linearGradient id="SVGID_15_" x1="174.53" x2="178.339" y1="283.534" y2="283.534" gradientTransform="matrix(.9866 5.1375 -3.0363 .5831 975.726 -808.032)" gradientUnits="userSpaceOnUse"><stop offset="0" style="stop-color:#d49529"/><stop offset=".58" style="stop-color:#fdf8d3"/><stop offset="1" style="stop-color:#d49529"/></linearGradient><path d="m277.63 250.96 5.53 28.76 16.99-3.28-5.53-28.74z" style="clip-path:url(#SVGID_14_);fill:url(#SVGID_15_)"/><defs><path id="SVGID_16_" d="M279.46 209.3s-3.58-3.25-6.55-3.25c-2.97 0-6.32 5.45-6.32 5.45s2.97-1.6 5.01-1.6c2.03 0 2.75.88 2.75.88s-4.85.17-5.89 2.15c-1.05 1.98-.54 4.57-.54 4.57s2.19-3.68 4.25-4.26c2.07-.59 7.29-3.94 7.29-3.94m5.77.27s-12.26 5.67-14.09 7.54c-1.81 1.88-5.01 9.52-5.01 9.52s-.16-1.32-.27-3.52c-.11-2.2.78-3.14.78-3.14s-3.7-2.87-3.08-8.53c.6-5.67 8.08-8.26 10.83-7.98 2.75.27 7.38 4.57 7.38 4.57s2.54-.06 3.46 1.54zm21.87 41.71s8.12-4.34 10.05-6.6c1.93-2.26 1.93-2.37 1.93-2.37l-4.63-8.14s3.31-1.55 4.31-1.63c.99-.08 2.76.37 2.76.37l-4.31 1.72 2.92 5.91s2.24-1.71 4.4-4.39c2.16-2.68 2.44-3.52 2.44-3.52s-8.78-6.55-14.34-9.63c-5.55-3.08-5.88-3.63-5.88-3.63l.68-6.97s-25.07-11.26-31.7-13.03c-4.79-1.27-24.87 10.3-35.73 16.87 1.01 3.46-1.2 7.06-3.11 10.14-1.54 2.48-3.7 8.72-4.22 12.71 1.57 4.71 3.29 8.21 3.29 8.21s.75-4.15 2.51-8.42c1.77-4.27 3.54-6.41 3.54-6.41s.6 7.59 2.59 12.55c1.98 4.95 6.72 11.12 6.82 15.32.11 4.2-2.66 7.73-2.66 7.73s4.92-1.37 6.73-6.93c1.81-5.56-.28-10.67-.28-10.67s-1.6-3.47-1.15-7.54c.44-4.07 1.38-4.85 1.38-4.85s-1.21 5.4 1.7 12.22c2.92 6.82 14.6 16.77 18.01 26.26 3.43 9.5.24 17.23.24 17.23s7.67-9 10.41-17.26c2.76-8.25-2.24-16.83-3.73-21.45-1.49-4.63-2.64-6.66-2.7-9.47-.05-2.8 3.3-4.35 3.3-4.35l-1.71 4.3s8.15 6.88 10.74 9.03c2.58 2.15 3.13 2.53 3.13 2.53s9.24-6.22 10.07-7.81c.82-1.59 1.05-2.75 1.05-2.75l-7.28 2.42-8.52-5.4s4.85-5.22 7.98-6.82c3.13-1.6 4.89-1.26 4.89-1.26l-3.79 2.31 9.74 6.55c.04-.01.43 2.52-1.87 6.92z"/></defs><clipPath id="SVGID_17_"><use xlink:href="#SVGID_16_" style="overflow:visible"/></clipPath><linearGradient id="SVGID_18_" x1="176.697" x2="178.376" y1="302.409" y2="302.409" gradientTransform="matrix(26.3153 -18.5464 19.1871 27.2243 -10174.786 -4708.126)" gradientUnits="userSpaceOnUse"><stop offset="0" style="stop-color:#d49529"/><stop offset=".58" style="stop-color:#fdf8d3"/><stop offset="1" style="stop-color:#d49529"/></linearGradient><path d="m263.98 338.17 108.06-76.15-76.36-108.33-108.05 76.16z" style="clip-path:url(#SVGID_17_);fill:url(#SVGID_18_)"/><defs><path id="SVGID_19_" d="M267.9 217.47c.38-1.28.96-2.92 1.59-3.71 1.11-1.37 4.8-1.67 5.95-2.64 1.14-.97 1.77-1.51 1.77-1.51s-3.31-2.21-5.61-1.54c-1.87.55-4.19 2.64-5 3.41.23-.12 3.03-1.59 4.99-1.59 2.03 0 2.75.88 2.75.88s-4.85.17-5.89 2.15c-.99 1.88-.6 4.29-.55 4.55"/></defs><clipPath id="SVGID_20_"><use xlink:href="#SVGID_19_" style="overflow:visible"/></clipPath><linearGradient id="SVGID_21_" x1="154.416" x2="156.432" y1="300.116" y2="300.116" gradientTransform="matrix(-1.9451 2.5113 -2.5039 -1.9394 1325.987 403.769)" gradientUnits="userSpaceOnUse"><stop offset="0" style="stop-color:#d49529"/><stop offset=".45" style="stop-color:#fdf8d3"/><stop offset="1" style="stop-color:#d49529"/></linearGradient><path d="m270.58 202.28-8.85 11.42 11.49 8.9 8.85-11.42z" style="clip-path:url(#SVGID_20_);fill:url(#SVGID_21_)"/><defs><path id="SVGID_22_" d="M204.1 177.7s-12.51 7.4-16.59 11.62c-4.07 4.21-3.34 5.74-2.7 5.6.66-.15 15.92-3.93 20.28-4 4.37-.07 7.56.08 7.56.08s-10.04 1.02-15.99 3.34c-5.96 2.32-9.31 4.36-8.64 5.6.65 1.23 10.1 6.4 14.39 7.41 4.28 1.02 11.85 1.53 11.85 1.53s-5.96 2.25-13.89.44c-7.91-1.82-13.37-5.6-13.37-5.6s-.36 2.62 4.71 7.63c5.11 5.01 11.57 8.14 16.29 9.31 4.74 1.16 7.64 1.09 7.64 1.09s-4.16 2.53-12.3.35c-8.14-2.18-12.27-7.77-12.27-7.77s-4.43.07 0 6.03 11.05 8.87 15.92 11.05c4.86 2.18 12.08 1.68 12.08 1.68s-5.04 2.75-16.46-.96c-11.41-3.71-15.98-13.88-16.56-15.84-.59-1.97 2.1-4.59 2.1-4.59s-5.01-6.18-5.23-8.65c-.23-2.48 1.3-2.77 1.3-2.77s-1.24-1.23-1.16-2.18c.08-.94.16-1.02.16-1.02s-3.79-1.53-1.9-4.95c1.91-3.4 7.79-10.96 22.78-14.43m24.26 72.92c-.98 5.74-2.89 14.81-8.32 13.23-2.39-.68-2.45-6.01-2.39-8.02a20.085 20.085 0 0 1-3.82 2.56c-3.07 1.57-6.61 2.29-10.07 2.14-1.95-.1-5.53-.53-6.54-2.5-.24-.49-.35-1.04-.28-1.59.23-1.74 1.86-2.36 3.19-3.07 1.31-.69 2.45-1.45 3.57-2.41-.38.25-.78.48-1.14.69-1.43.78-3.05 1.23-4.65 1.48l-.1.03h-.02l-.09.01-.03.01-.09.01h-.03l-.08.01h-.02l-.17.02-.05.01h-.02l-.23.02h-.03l-.26.03h-.01l-.14.01h-.02l-.11.01h-.04l-.11.01-.14.01H196l-.09.01h-.06l-.01.01c-.2 0-.39.01-.59.02H194.3l-.32-.01h-.01l-.28-.01h-.09c-.97-.04-1.94-.17-2.81-.4h-.02c-.79-.21-1.48-.5-2.03-.9-18.91-.2-34.09.63-47.4-12.48-13.48-13.25 1.99-28.83-5.97-41.41-7.95-12.59-26.06-11.04-35.12-4.86-9.06 6.19-12.02 13.31-12.02 13.31s-5.76.61-9.63 6.69c-3.86 6.08-3.21 12.47-7.07 14.02-3.86 1.55-5.41-1.43-5.41-1.43s-.22 10.38 18.11 7.39c18.34-2.97 9.94-25.62 9.94-25.62s3.52-11.56 21.07-10.57c17.55.99 16.04 15.76 12.72 29.45-3.31 13.7 14.25 25.96 18.78 27.94 4.53 1.99 11.26 3.76 11.26 3.76s-7.28 10.48-10.6 17.89c-3.31 7.41-6.84 16.56-13.69 18.22-6.84 1.66-8.51 0-8.51 0s-10.71 19.99-11.37 23.98c-.66 3.96 6.96 13.03 6.96 13.03s6.07 2.48 11.24 2.59c5.17.12 7.15-.48 7.15-.48s.5-3.86-3.8-6.51c-4.28-2.64-8.42-2.25-8.42-2.25s3.36-2.32 10.51.65c7.16 2.99 5.01 7.93 5.01 7.93s5.23.35 7.43-.44c2.2-.77 2.2-.83 2.2-.83s3.03-5.2-2.29-9.51c-5.29-4.3-14.01-3.54-14.01-3.54s-2.54-5.63 2.64-10.82c5.2-5.19 5.2-5.08 5.2-5.08s14.07 5.82 25.07-1.43c11.02-7.27 16.11-18 21.3-21.77 5.2-3.75 7.63-3.08 7.63-3.08s-4.28 2.62-6.36 5.04c-2.09 2.42-2.48 3.74-2.48 3.74s10.71.59 16.34 3.47c5.64 2.87 15.46 7.62 19.67 7.84 4.19.22 6.07-.12 6.07-.12.76-2.73 1.51-5.49 2.27-8.22 0 0-2.91-4.9-1.48-10.85 1.42-5.93 4.84-9.07 4.84-9.07s-2.82 5.94-2.93 9.36c-.11 3.41.94 6.17.94 6.17s.71-2.18 1.76-4.01c1.05-1.83 1.79-2.22 1.79-2.22s-5.43 22.39-6.87 26.26c-1.43 3.87-1.77 4.53-1.77 4.53s4.09 8.94 5.41 14.36c1.33 5.41 6.41 11.73 6.41 11.73s8.61 2.73 17.78 2.85c9.17.11 9.27-.77 9.27-.77s1.11-3.54-4.63-7.72c-5.74-4.21-11.6-3.42-11.6-3.42s5.73-2.25 12.33 1.45c6.6 3.69 7.7 9.12 7.7 9.12s4.84-.04 6.16-1.52c1.33-1.5-1.21-8.58-9.29-11.56-8.09-2.98-11.89-3.07-11.89-3.07s-7.44-7.45-7.88-10.23c-.44-2.76 11.81-17.33 11.81-17.33s1.41-1.63 2.26-4.58c.86-2.94.71-4.19.71-4.19s1 3.55.64 5.59c-.35 2.02-1.05 3.79-1.05 3.79s5.01-5.38 4.84-11.09c-.17-5.73-1.65-7.55-1.65-7.55s2.54 1.38 3.19 9.25c.66 7.87-8.25 12.87-8.25 12.87l.33-2.52c-2.11 2.77-4.22 5.53-6.33 8.3 0 0 8.51-1.38 16.47-7.56l.44-.35.68-1.63c.53-1.33.87-3.2 1.03-4.62.42-3.71-.02-7.46-1.29-10.97-1.41-3.9-4.28-7.79-6.84-11.02-2.09-2.65-4.29-5.21-6.38-7.85-.44-.54-.88-1.11-1.32-1.71-.05 1.79-.33 3.56-.84 5.09-1.21 3.7-4.43 7.32-8.27 8.39l-6.63 1.85 4.22-5.42c1.25-1.63 2.23-4.23 2.17-6.28-.05-2.32-2.39-6.3-3.52-8.33-1.11-2.01-2.27-4.07-3.13-6.2-.76-1.88-1.35-4.13-1.81-6.42-.04.11-.08.21-.13.3-1 2.42-1.91 5.37-2.38 7.97l-1.22 6.78-3.04-6.18c-1.24-2.51-2.76-6.2-3.85-8.53 0 0 2.35-10.5 4.89-14.59 2.54-4.09 4.2-7.18 1.99-9.94s-11.26-5.85-15.13-17.45c-3.86-11.6-3.42-25.18-3.42-25.18s-22.09-19.55-28.83-20.44c-6.73-.88 11.71 17.12 11.71 17.12s-19.44-6.96-38.98-10.49c-19.55-3.54-34.13-10.16-37.77-16.9-3.65-6.74-3.65-16.56-3.65-16.56s-7.72 5.63-5.62 18.99c2.09 13.37 22.19 19.99 31.91 23.75 9.73 3.76 27.63 10.27 27.63 10.27s-17.92-4.92-26.61-7.51c-8.69-2.59-20.2-6.93-24.61-9.58-4.4-2.64-5.88-5.5-5.88-5.5s.21 6.57 5.73 13.52c5.53 6.96 22.43 11.05 33.58 13.59 11.15 2.54 17.55 5.19 17.55 5.19s-17.35-3.35-24.39-3.96c-7.05-.61-15.8-4.73-15.8-4.73s.32 6.15 18.12 15.21c17.78 9.05 26.39 5.63 26.39 5.63s-14.02 4.53-18.11 10.93c-4.08 6.41-3.98 9.5-3.98 9.5s8.29-5.96 14.12-7.84c5.87-1.88 7.08-1.88 7.08-1.88s-7.63 8.4-10.16 15.9c-2.54 7.51-1.99 10.28-1.99 10.28s7.63-5.85 11.81-7.95c4.19-2.1 8.06-2.54 8.06-2.54s-6.51 6.85-9.77 9.78c-3.26 2.93-9.01 5.58-9.01 5.58s10.6 2.76 18.12.66c7.51-2.1 13.48-4.86 13.48-4.86s-3.9 6.65-5.94 8.91c-2.03 2.26-3.58 2.14-2.7 3.36.88 1.21 7.65 1.75 11.55-.39 3.92-2.14 8.59-7.48 8.59-7.48s-.47 6.39-4.31 9.99c-3.85 3.61-7.03 3.81-6.5 4.84.53 1.01 7.29 2.57 13.57-.63 6.28-3.19 8.04-8.58 8.04-8.58s-1.48 9.02-.72 11.43c.78 2.43.99 5.3 4.34-1.26 1.23-2.36 2.62-4.97 3.91-7.34z"/></defs><clipPath id="SVGID_23_"><use xlink:href="#SVGID_22_" style="overflow:visible"/></clipPath><linearGradient id="SVGID_24_" x1="172.558" x2="176.365" y1="302.675" y2="302.675" gradientTransform="matrix(8.4068 43.6121 -43.6421 8.4126 11915.442 -9923.52)" gradientUnits="userSpaceOnUse"><stop offset="0" style="stop-color:#d49529"/><stop offset=".58" style="stop-color:#fdf8d3"/><stop offset="1" style="stop-color:#d49529"/></linearGradient><path d="m26.42 132.95 47.14 244.53 245.55-47.34-47.14-244.52z" style="clip-path:url(#SVGID_23_);fill:url(#SVGID_24_)"/><defs><path id="SVGID_25_" d="M111.26 189.06c-4.19.7-8.07 2.22-11 4.23-9.06 6.19-12.02 13.31-12.02 13.31s-5.76.61-9.63 6.69c-3.86 6.08-3.21 12.47-7.07 14.02-3.86 1.55-5.41-1.43-5.41-1.43s-.01.64.24 1.56c.63.66 1.49 1.3 2.69 1.87 4.67 2.21 9.43.77 12.23-6.02 2.79-6.8 2.96-9.53 5.68-11.26 2.72-1.72 4.52-1.72 4.52-1.72s-4.45 2.92-5.11 8.23c-.67 5.31-.2 8.24-3.32 11.02-3.12 2.79-5.51 2.33-5.51 2.33s7.71 2.52 12.56-3.78c4.84-6.31 2.98-17.34 2.98-17.34s2.99 1.93 2.52 10.03c-.1 1.75-.44 3.52-.93 5.2 3.46-7.67-.5-18.34-.5-18.34s3.52-11.56 21.07-10.57c17.55.99 16.04 15.76 12.72 29.45-3.31 13.7 14.25 25.96 18.78 27.94 4.53 1.99 11.26 3.76 11.26 3.76s-7.28 10.48-10.6 17.89c-1.81 4.07-3.7 8.66-6.17 12.26 1.8-1.4 4.23-3.97 7.04-8.7 6.05-10.16 8.82-15.76 15.1-18.96 6.26-3.2 11.59-3.2 11.59-3.2s-29.31-1.59-38.9-16.12c-9.6-14.52-.53-20.66-3.47-33.84-2.94-13.19-16.39-13.86-22.39-12.93-5.99.93-9.81 3.46-12.28 5.98-2.45 2.53-4.19 6.59-4.19 6.59s-.94-4.96 3.34-9.98c3.11-3.68 10.45-6.77 14.18-8.17"/></defs><clipPath id="SVGID_26_"><use xlink:href="#SVGID_25_" style="overflow:visible"/></clipPath><linearGradient id="SVGID_27_" x1="174.817" x2="177.618" y1="304.596" y2="304.596" gradientTransform="matrix(-11.736 33.7897 -30.351 -10.5416 11421.825 -2471.332)" gradientUnits="userSpaceOnUse"><stop offset="0" style="stop-color:#d49529"/><stop offset=".45" style="stop-color:#fdf8d3"/><stop offset="1" style="stop-color:#d49529"/></linearGradient><path d="M77.83 155.32 35.32 277.68l127.94 44.44 42.49-122.37z" style="clip-path:url(#SVGID_26_);fill:url(#SVGID_27_)"/><defs><path id="SVGID_28_" d="M127.97 324.24c1.48-.48 4.6-.93 9.51 1.1 7.16 2.99 5.01 7.93 5.01 7.93s5.23.35 7.43-.44c2.2-.77 2.2-.83 2.2-.83s.62-1.04.81-2.59l-6.19.48s-4.52-5.87-9.43-6.72c-3.93-.69-7.89.55-9.34 1.07"/></defs><clipPath id="SVGID_29_"><use xlink:href="#SVGID_28_" style="overflow:visible"/></clipPath><linearGradient id="SVGID_30_" x1="180.394" x2="184.204" y1="304.626" y2="304.626" gradientTransform="matrix(-5.1792 7.7082 -8.5571 -5.7496 3699.482 662.18)" gradientUnits="userSpaceOnUse"><stop offset="0" style="stop-color:#d49529"/><stop offset=".67" style="stop-color:#fdf8d3"/><stop offset="1" style="stop-color:#d49529"/></linearGradient><path d="m135.73 310.94-12.9 19.21 22.34 15 12.89-19.2z" style="clip-path:url(#SVGID_29_);fill:url(#SVGID_30_)"/><defs><path id="SVGID_31_" d="M143.88 319.68c-4.17-1.05-8.06-.72-8.06-.72s-2.54-5.63 2.64-10.82c5.2-5.19 5.2-5.08 5.2-5.08s7.27 3.02 15.46 2.01c-3-2.11-8.7-5.56-15.31-6.74-9.77-1.72-14.02-.99-14.02-.99l5.91 3.39s-3.05.61-7.3 8.04c-4.24 7.44-2.88 12.85-2.88 12.85s6.52-1.69 18.36-1.94"/></defs><clipPath id="SVGID_32_"><use xlink:href="#SVGID_31_" style="overflow:visible"/></clipPath><linearGradient id="SVGID_33_" x1="178.965" x2="182.215" y1="309.206" y2="309.206" gradientTransform="matrix(.0336 7.6135 -8.6739 .0383 2817.627 -1068.42)" gradientUnits="userSpaceOnUse"><stop offset="0" style="stop-color:#d49529"/><stop offset=".58" style="stop-color:#fdf8d3"/><stop offset="1" style="stop-color:#d49529"/></linearGradient><path d="m124.04 296.62.13 25.15 35.05-.15-.1-25.16z" style="clip-path:url(#SVGID_32_);fill:url(#SVGID_33_)"/><defs><path id="SVGID_34_" d="M117.47 309.51c-1.87 3.9-3.4 7.38-3.63 8.81-.66 3.96 6.96 13.03 6.96 13.03s6.07 2.48 11.24 2.59c1.42.03 2.6 0 3.57-.04.03-.8-.11-1.9-.64-3.22-1.26-3.23-9.83-4.25-9.83-4.25s-8.66-5.86-8.91-10.48c-.09-1.43.45-3.81 1.24-6.44"/></defs><clipPath id="SVGID_35_"><use xlink:href="#SVGID_34_" style="overflow:visible"/></clipPath><linearGradient id="SVGID_36_" x1="163.071" x2="167.775" y1="299.097" y2="299.097" gradientTransform="matrix(5.8673 -5.7042 5.7115 5.8748 -2549.587 -496.545)" gradientUnits="userSpaceOnUse"><stop offset="0" style="stop-color:#d49529"/><stop offset=".58" style="stop-color:#fdf8d3"/><stop offset="1" style="stop-color:#d49529"/></linearGradient><path d="m124.08 345.18 23.76-23.1-23.12-23.78-23.76 23.1z" style="clip-path:url(#SVGID_35_);fill:url(#SVGID_36_)"/><defs><path id="SVGID_37_" d="M267.19 274.87c.75.74 2.3 2.97 2.8 8.93.66 7.87-8.25 12.87-8.25 12.87l.33-2.52c-2.11 2.77-4.22 5.53-6.33 8.3 0 0 5.62-.92 11.99-4.58 1.38-1.72 2.76-3.61 3.43-5.04 1.59-3.39 2.93-7.97-.33-14.48-3.28-6.53-8.26-9.58-8.26-9.58s1.01.81 2.78 3.08c.67.87 1.31 1.95 1.84 3.02M251 305.89c3.29-5.27 10.05-13.31 10.05-13.31s1.41-1.63 2.26-4.58c.86-2.94.71-4.19.71-4.19s1 3.55.64 5.59c-.35 2.02-1.05 3.79-1.05 3.79s.88-.95 1.88-2.45c.32-.96.61-2.13.63-3.15.05-2.24.05-2.39-1.26-6.05-1.33-3.65-3.66-6.25-3.66-6.25s.93 6.05-1.13 12.5c-2.03 6.38-8.96 17.89-9.07 18.1z"/></defs><clipPath id="SVGID_38_"><use xlink:href="#SVGID_37_" style="overflow:visible"/></clipPath><linearGradient id="SVGID_39_" x1="176.328" x2="180.25" y1="295.684" y2="295.684" gradientTransform="matrix(1.3714 7.1138 -4.9934 .9626 1494.494 -1265.709)" gradientUnits="userSpaceOnUse"><stop offset="0" style="stop-color:#d49529"/><stop offset=".58" style="stop-color:#fdf8d3"/><stop offset="1" style="stop-color:#d49529"/></linearGradient><path d="m244.1 270.1 7.72 40.08 29.17-5.63-7.71-40.06z" style="clip-path:url(#SVGID_38_);fill:url(#SVGID_39_)"/><defs><path id="SVGID_40_" d="M165.49 303.37c1.11-.47 2.18-1.04 3.25-1.74 11.02-7.27 16.11-18 21.3-21.77 5.2-3.75 7.63-3.08 7.63-3.08s-4.28 2.62-6.36 5.04c-2.09 2.42-2.48 3.74-2.48 3.74s10.71.59 16.34 3.47c5.64 2.87 15.46 7.62 19.67 7.84 4.19.22 6.07-.12 6.07-.12.76-2.73 1.51-5.49 2.27-8.22 0 0-2.91-4.9-1.48-10.85 1.42-5.93 4.84-9.07 4.84-9.07s-2.82 5.94-2.93 9.36c-.11 3.41.94 6.17.94 6.17s.71-2.18 1.76-4.01c1.05-1.83 1.79-2.22 1.79-2.22s-5.43 22.39-6.87 26.26c-1.43 3.87-1.77 4.53-1.77 4.53s4.09 8.94 5.41 14.36c1.33 5.41 6.41 11.73 6.41 11.73s8.61 2.73 17.78 2.85c9.17.11 9.27-.77 9.27-.77s1.11-3.54-4.63-7.72c-5.74-4.21-11.6-3.42-11.6-3.42s5.73-2.25 12.33 1.45c6.6 3.69 7.7 9.12 7.7 9.12s4.84-.04 6.16-1.52c.67-.76.36-2.9-1.12-5.23-.98.72-3.23 1.99-4.95.21-2.27-2.32-7.3-7.37-14.48-6.77-7.18.6-9.1 3.78-9.1 3.78s1.73-.39 6.37.8c4.65 1.19 6.04 4.45 6.04 4.45s-14.33.54-17.32-4.38c-2.98-4.92-6.08-14.14-6.08-14.14s-.4-2.3 1.57-4.15c1.96-1.84 7.27-1.17 7.27-1.17s-1.04-.77-3.77-1.21c-2.74-.44-6.73.54-6.73.54s1.23-14.87 2.43-21.78c1.19-6.91 4.35-13.02 4.35-13.02s-1.36.08-3.33 1.23c-1.96 1.16-3.01 3.02-3.01 3.02s-.07-2.18 1.05-6.24c1.14-4.04 3.26-6.96 3.26-6.96s-6.98 1.79-11.16 9.35c-4.18 7.57-2.92 13.48-2.92 13.48s-7.24-.27-15.54-4.25c-8.29-3.98-13.09-3.32-13.09-3.32s.47-1.26 2.93-3.19c2.45-1.92 10.03-3.32 10.03-3.32s-8.44-1.19-14.34-.4c-5.91.8-9.04 2.32-16.8 15.07-4.86 8.02-10.7 13.35-14.36 16.19"/></defs><clipPath id="SVGID_41_"><use xlink:href="#SVGID_40_" style="overflow:visible"/></clipPath><linearGradient id="SVGID_42_" x1="175.467" x2="177.819" y1="301.389" y2="301.389" gradientTransform="matrix(-17.0926 25.83 -28.515 -18.8693 11821.972 1445.697)" gradientUnits="userSpaceOnUse"><stop offset="0" style="stop-color:#d49529"/><stop offset=".45" style="stop-color:#fdf8d3"/><stop offset="1" style="stop-color:#d49529"/></linearGradient><path d="m200.05 211.53-68.62 103.68 112.98 74.76 68.6-103.69z" style="clip-path:url(#SVGID_41_);fill:url(#SVGID_42_)"/><defs><path id="SVGID_43_" d="M188.26 198.85c1.6.65 4.02 1.41 7.41 1.88 7.18 1 12.81.07 12.81.07s-4.08 2.22-5.91 2.52c-1.84.31-3.03.24-3.03.24s1.07 1.64 6.7 2.78c5.65 1.14 12.09 2.14 12.09 2.14s-1.88.3-4.51.54c.29-.08.44-.14.44-.14s-7.57-.51-11.85-1.53c-4.29-1.01-13.73-6.18-14.39-7.41-.18-.32-.08-.68.24-1.09m-3.95-4.51c.61-.15 1.58-.57 3.05-1.59 3.14-2.17 6.78-3.58 14.72-4.65 7.94-1.07 13.18 2.04 13.18 2.04l-.36 1.84s-.04-.77-3.81-.8c.98-.13 1.57-.19 1.57-.19s-3.19-.15-7.56-.08c-4.36.08-19.63 3.85-20.28 4-.24.06-.49-.12-.51-.57z"/></defs><clipPath id="SVGID_44_"><use xlink:href="#SVGID_43_" style="overflow:visible"/></clipPath><linearGradient id="SVGID_45_" x1="161.145" x2="164.952" y1="302.522" y2="302.522" gradientTransform="matrix(.9199 4.7713 -6.5629 1.2653 2036.835 -962.304)" gradientUnits="userSpaceOnUse"><stop offset="0" style="stop-color:#d49529"/><stop offset=".58" style="stop-color:#fdf8d3"/><stop offset="1" style="stop-color:#d49529"/></linearGradient><path d="m180.23 187.82 5.3 27.52 36.89-7.11-5.3-27.53z" style="clip-path:url(#SVGID_44_);fill:url(#SVGID_45_)"/><defs><path id="SVGID_46_" d="M228.27 235.73s.4-5.91 1.72-10.36c1.33-4.45 3.4-7.31-1.2-10.9-4.57-3.58-8.1-9.56-10.87-18.39-2.79-8.83-2.33-17.79-2.33-17.79s-3.44 10.76.53 21.59c3.98 10.82 8.3 12.6 6.96 15-1.33 2.39-13.39 3.59-22.56-.66-6.38-2.96-7.95-6.07-8.33-7.69-3.24-1.47-5.18-2.82-5.18-2.82s-.36 2.62 4.71 7.63c5.11 5.01 11.57 8.14 16.29 9.31 4.74 1.16 7.64 1.09 7.64 1.09s-.14.08-.4.2c3.11-.43 6.78-1.14 6.78-1.14s-.97 6.95-11.56 7.04c-10.59.08-18.63-8.71-19.19-11.09-.28-1.25-.33-1.98-.3-2.41-.63.06-3.95.6.09 6.03 4.43 5.96 11.05 8.87 15.92 11.05 4.86 2.18 12.08 1.68 12.08 1.68s-.53.29-1.62.55c1.57-.02 2.88-.18 3.7-.54 3.43-1.47 2.41 4.35 7.12 2.62"/></defs><clipPath id="SVGID_47_"><use xlink:href="#SVGID_46_" style="overflow:visible"/></clipPath><linearGradient id="SVGID_48_" x1="168.981" x2="172.788" y1="301.692" y2="301.692" gradientTransform="matrix(2.2023 11.4279 -9.6026 1.8506 2730.549 -2304.089)" gradientUnits="userSpaceOnUse"><stop offset="0" style="stop-color:#d49529"/><stop offset=".58" style="stop-color:#fdf8d3"/><stop offset="1" style="stop-color:#d49529"/></linearGradient><path d="m175.65 180.41 12.66 65.74 56.07-10.81-12.67-65.73z" style="clip-path:url(#SVGID_47_);fill:url(#SVGID_48_)"/><defs><path id="SVGID_49_" d="M220.9 261.53c.54.96 1.4.65 3.56-3.57 1.17-2.29 2.51-4.81 3.76-7.11 1.16-4.08 1.72-7.81 1.72-7.81s-2.38.97-3.73 3.74c-1.37 2.78-.97 3.59-3.04 10.04-.95 2.98-1.71 4.23-2.27 4.71m-21.59-5.06c-.14.17-.17.33-.08.53.53 1.01 7.29 2.57 13.57-.63 5.16-2.64 7.27-6.74 7.85-8.12 1.48-5.69 3.89-9.26 3.89-9.26s-3.45.47-5.83 4.25c-2.39 3.79-1.6 7.91-8.36 11.29-4.98 2.47-9.17 2.24-11.04 1.94zm-9.65-7.11c-.03.19.04.4.25.69.88 1.21 7.65 1.75 11.55-.39 3.05-1.67 6.55-5.27 7.97-6.78 1.67-2.77 3.7-3.89 3.7-3.89s-2.19-.47-6.71 1.13c-4.5 1.6-6.91 8.42-12.05 9.52-2.79.6-4.09.2-4.71-.28z"/></defs><clipPath id="SVGID_50_"><use xlink:href="#SVGID_49_" style="overflow:visible"/></clipPath><linearGradient id="SVGID_51_" x1="175.132" x2="178.043" y1="304.591" y2="304.591" gradientTransform="matrix(-9.0092 .0586 -.0396 -6.0876 1807.79 2094.42)" gradientUnits="userSpaceOnUse"><stop offset="0" style="stop-color:#d49529"/><stop offset=".5" style="stop-color:#fdf8d3"/><stop offset="1" style="stop-color:#d49529"/></linearGradient><path d="m229.94 238.26-40.46.26.15 24.24 40.47-.27z" style="clip-path:url(#SVGID_50_);fill:url(#SVGID_51_)"/><defs><path id="SVGID_52_" d="M190.55 152.4c-.35-.1-.66-.18-.96-.23-6.73-.88 11.71 17.12 11.71 17.12l-.56-.2c7.66 3.86 10.48 3.93 10.48 3.93s-8-6.4-15.06-13.19c-2.26-2.16-4.12-4.81-5.61-7.43"/></defs><clipPath id="SVGID_53_"><use xlink:href="#SVGID_52_" style="overflow:visible"/></clipPath><linearGradient id="SVGID_54_" x1="178.887" x2="182.585" y1="309.288" y2="309.288" gradientTransform="matrix(-10.1647 -3.8254 3.561 -9.4622 920.297 3775.4)" gradientUnits="userSpaceOnUse"><stop offset="0" style="stop-color:#d49529"/><stop offset=".58" style="stop-color:#fdf8d3"/><stop offset="1" style="stop-color:#d49529"/></linearGradient><path d="m218.39 153.99-32.01-12.04-10.68 28.39 32 12.04z" style="clip-path:url(#SVGID_53_);fill:url(#SVGID_54_)"/><defs><path id="SVGID_55_" d="M120.69 125.52c-1.23 1.02-7.31 6.78-5.41 18.82 2.09 13.37 22.19 19.99 31.91 23.75 7.98 3.08 21.47 8.03 26.04 9.7 4.68 1.32 7.57 2.04 7.57 2.04s-3.32.66-4.32 2.52c-.76 1.43.96 3.78 1.78 4.77-3.34-1.73-9.83-4.85-16.92-6.83-10.22-2.86-23.24-7.24-31.55-11.62-5.81-3.08-9.99-8.76-11.97-11.88.29 2.1 1.4 7.19 5.62 12.51 5.53 6.96 22.43 11.05 33.58 13.59 11.15 2.54 17.55 5.19 17.55 5.19s-6.75-1.31-13.55-2.44c7.45 1.78 12.21 3.14 15.16 4.06-.68.82-1.3 1.91-1.64 3.27-.31 1.27.29 2.34 1.2 3.2-4.37-.81-11.78-2.41-20.19-5.06-11.73-3.69-19.33-9.83-21.11-11.36.38 1.43 2.76 7.07 18.05 14.85 17.78 9.05 26.39 5.63 26.39 5.63s-10.41 3.37-15.92 8.4c1.42-.94 3.2-2.01 5.26-3.03 3.58-1.76 8.4-2.88 11.35-3.46l-.26.73c-.44 1.27-.26 2.73.19 4.13-3.95.58-12.3 2.18-15.79 5.57-2.77 2.68-5.26 5.88-6.84 8.03.9-.64 8.55-6.02 14.03-7.77 5.87-1.88 7.08-1.88 7.08-1.88l-.2.23c1.2-.57 2.23-.93 3.06-1.16.78 1.4 1.52 2.36 1.52 2.36s-.56 2.19 1.58 6.52c-2.53 1.23-8.65 4.44-12.07 8.22-4.37 4.85-6.04 10.02-6.04 10.02s7.63-5.85 11.81-7.95c4.19-2.1 8.06-2.54 8.06-2.54s-.23.25-.63.66c1.23-.85 2.27-1.53 3.08-2.03l.04.05c2.09 2.55 4.32 4.64 6.62 6.29-1.64 1.61-5.07 4.65-9.53 6.92-6.37 3.25-18.36 3.45-18.36 3.45s10.6 2.76 18.12.66c7.51-2.1 13.48-4.86 13.48-4.86l-.17.27c1.1-1.08 2.12-2.13 2.95-2.99 3.39 1.26 6.79 1.67 9.95 1.33 7.37-.79 13.34-4.78 13.34-4.78s-.59.47-3.92 1.19c-.57.13-1.21.23-1.87.3.17 0 .26-.01.26-.01s-5.04 2.75-16.46-.96c-11.41-3.71-15.98-13.88-16.56-15.84-.59-1.97 2.1-4.59 2.1-4.59s-5.01-6.18-5.23-8.65c-.23-2.48 1.3-2.77 1.3-2.77s-1.24-1.23-1.16-2.18c.08-.94.16-1.02.16-1.02s-3.79-1.53-1.9-4.95c1.9-3.41 7.78-10.98 22.77-14.45 0 0-3.14-1.2-16.06-4.4-12.93-3.2-50.78-11.19-62.36-21.59-11.6-10.4-4.76-25.59-4.76-25.59l-.21-.59z"/></defs><clipPath id="SVGID_56_"><use xlink:href="#SVGID_55_" style="overflow:visible"/></clipPath><linearGradient id="SVGID_57_" x1="175.943" x2="178.854" y1="304.346" y2="304.346" gradientTransform="matrix(-24.8038 .3048 -.3823 -31.111 4672.383 9599.736)" gradientUnits="userSpaceOnUse"><stop offset="0" style="stop-color:#d49529"/><stop offset=".5" style="stop-color:#fdf8d3"/><stop offset="1" style="stop-color:#d49529"/></linearGradient><path d="m224.6 124.14-112.69 1.39 1.49 120.57 112.68-1.38z" style="clip-path:url(#SVGID_56_);fill:url(#SVGID_57_)"/><defs><path id="SVGID_58_" d="M292.77 274.87c3.31-.52 6.75-1.39 9.7-2.84 9.16-4.52 24.85-8.27 29.94-8.27 5.07 0 10.38 8.16 11.47 12.8 1.11 4.65-2.65 7.41-2.65 7.41s-1.2-5.13-3.97-7.96c-2.76-2.84-5.35-4.48-8.55-4.24-3.19.22-3.9 1.14-3.9 1.14s5.61-.1 9.58 3.42c3.95 3.52 4.84 9.37 4.84 9.37s-5.62 1.92-9.42-.72c-3.79-2.64-11.93-3.8-11.93-3.8s-12.2 4.12-17.83 7.99c-5.64 3.86-10.61 6.84-10.61 6.84l7.63.33s-6.85 4.42-15.91 3.87c-3.85-.24-6.57-1.49-8.41-2.86 4.57.41 9.11-7.02 13.24-14.16 2.68-3.28 4.21-4.91 6.78-8.32"/></defs><clipPath id="SVGID_59_"><use xlink:href="#SVGID_58_" style="overflow:visible"/></clipPath><linearGradient id="SVGID_60_" x1="177.25" x2="180.162" y1="297.377" y2="297.377" gradientTransform="matrix(3.7316 9.9119 -13.3124 5.0118 3600.666 -2979.815)" gradientUnits="userSpaceOnUse"><stop offset="0" style="stop-color:#d49529"/><stop offset=".58" style="stop-color:#fdf8d3"/><stop offset="1" style="stop-color:#d49529"/></linearGradient><path d="m260.53 268.34 21.17 56.24 75.5-28.43-21.18-56.23z" style="clip-path:url(#SVGID_59_);fill:url(#SVGID_60_)"/><defs><path id="SVGID_61_" d="M328.23 273.32c1.88.43 4.21 1.28 6.15 3 3.95 3.52 4.84 9.37 4.84 9.37s-5.62 1.92-9.42-.72c-3.79-2.64-11.93-3.8-11.93-3.8s-12.2 4.12-17.83 7.99c-5.64 3.86-10.61 6.84-10.61 6.84l7.63.33s-6.85 4.42-15.91 3.87c-3.85-.24-6.57-1.49-8.41-2.86 4.57.41 9.11-7.02 13.24-14.16 1.79-2.18 3.07-3.62 4.49-5.36-1.42 2.64-3.02 5.88-3.63 8.04-1.19 4.25-1.6 6.17-1.6 6.17s3.85-5.65 7.64-8.57c3.78-2.92 5.84-3.79 5.84-3.79l-3.59 6.25s10.5-4.39 16.14-6.71c5.65-2.32 13.41 0 16.6 1.46 3.18 1.47 7.17 2.62 8.03 2.65.87.04 1.24-.21 1.24-.21s-.8-5.44-5.04-8.05c-1.46-.89-2.77-1.43-3.87-1.74m15.26 7.7c-.83 1.89-2.27 2.95-2.27 2.95s-1.2-5.13-3.97-7.96c-2.76-2.84-5.35-4.48-8.55-4.24-3.19.22-3.9 1.14-3.9 1.14s.69-2.72 6.63-2.56c5.94.18 8.92 3.09 10.51 5.56 1.13 1.73 1.57 3.36 1.55 5.11z"/></defs><clipPath id="SVGID_62_"><use xlink:href="#SVGID_61_" style="overflow:visible"/></clipPath><linearGradient id="SVGID_63_" x1="171.178" x2="173.081" y1="298.317" y2="298.317" gradientTransform="matrix(-14.0733 8.5539 -7.2101 -11.8625 4879.165 2353.254)" gradientUnits="userSpaceOnUse"><stop offset="0" style="stop-color:#d49529"/><stop offset=".45" style="stop-color:#fdf8d3"/><stop offset="1" style="stop-color:#d49529"/></linearGradient><path d="m324.41 238.78-65.24 39.65 32.65 53.73 65.25-39.66z" style="clip-path:url(#SVGID_62_);fill:url(#SVGID_63_)"/><defs><path id="SVGID_64_" d="m302.35 219.25-12.93-2.8 8.58 8.58 3.06.86.58 6.19 1.14-7.76-3.08-.61c.01 0 1.94-2.64 2.65-4.46m24.63 13.38s-2.59-.45-4.8-.56c-2.19-.1-3.5.49-3.5.49l-15.51-9.44 2.59-4.74c-7.43-5.06-10.87-3.12-20.71-4.43l10.82 12.15s.4 2.85-2.93 6.11c-1.72 1.69-3.73 3.09-5.46 4.17l15.19-3.47.5-4.85 10.5 5.65s2.64 6.93 2.48 8.63c-.17 1.71-9.05 8.93-9.05 8.93s8.12-4.34 10.05-6.6c1.93-2.26 1.93-2.37 1.93-2.37l-4.63-8.14s3.31-1.55 4.31-1.63c.99-.08 2.76.37 2.76.37l-4.31 1.72 2.92 5.91s2.24-1.71 4.4-4.39c2.17-2.68 2.45-3.51 2.45-3.51z"/></defs><clipPath id="SVGID_65_"><use xlink:href="#SVGID_64_" style="overflow:visible"/></clipPath><linearGradient id="SVGID_66_" x1="170.382" x2="172.845" y1="297.354" y2="297.354" gradientTransform="matrix(-4.412 11.5417 -11.4578 -4.3799 4466.637 -436.76)" gradientUnits="userSpaceOnUse"><stop offset="0" style="stop-color:#d49529"/><stop offset=".45" style="stop-color:#fdf8d3"/><stop offset="1" style="stop-color:#d49529"/></linearGradient><path d="m290.39 199.33-18.01 47.1 49.25 18.83 18.01-47.11z" style="clip-path:url(#SVGID_65_);fill:url(#SVGID_66_)"/><defs><path id="SVGID_67_" d="M283.49 250.63c1.4 2.71 4.38 8.41 5.87 10.99 2 3.46 3.19 6.11 3.19 6.11l-4.4 9.42-.15.2v-.12c1.48-4.44 1.02-9-.26-13.41-.53-1.85-1.21-3.65-1.93-5.44-.53-1.31-1.11-2.65-1.55-3.98-.47-1.49-1.01-2.94-1.54-4.41l.77.64z"/></defs><clipPath id="SVGID_68_"><use xlink:href="#SVGID_67_" style="overflow:visible"/></clipPath><linearGradient id="SVGID_69_" x1="176.192" x2="179.216" y1="284.118" y2="284.118" gradientTransform="matrix(1.4923 4.9654 -2.9574 .8888 862.696 -871.24)" gradientUnits="userSpaceOnUse"><stop offset="0" style="stop-color:#d49529"/><stop offset=".58" style="stop-color:#fdf8d3"/><stop offset="1" style="stop-color:#d49529"/></linearGradient><path d="m275.17 252.25 8.36 27.79 16.56-4.97-8.35-27.8z" style="clip-path:url(#SVGID_68_);fill:url(#SVGID_69_)"/><defs><path id="SVGID_70_" d="M235.98 247.29s-.47-11.69 3.04-20c3.52-8.3 9.96-15.74 21.38-21.84 6.88-3.67 11.03-5.33 13.25-6.06-6.99 1.18-23.97 11-33.64 16.85 1.01 3.46-1.2 7.06-3.11 10.14-1.54 2.48-3.7 8.72-4.22 12.71 1.58 4.7 3.3 8.2 3.3 8.2"/></defs><clipPath id="SVGID_71_"><use xlink:href="#SVGID_70_" style="overflow:visible"/></clipPath><linearGradient id="SVGID_72_" x1="170.759" x2="172.775" y1="301.483" y2="301.483" gradientTransform="matrix(-7.3098 12.2977 -11.4327 -6.7956 4958.23 155.204)" gradientUnits="userSpaceOnUse"><stop offset="0" style="stop-color:#d49529"/><stop offset=".45" style="stop-color:#fdf8d3"/><stop offset="1" style="stop-color:#d49529"/></linearGradient><path d="m243.39 181.39-31.73 53.4 51.3 30.5 31.74-53.4z" style="clip-path:url(#SVGID_71_);fill:url(#SVGID_72_)"/><defs><path id="SVGID_73_" d="M262 216.94s-7.71 4.05-10.76 14.67c-3.05 10.62 1.6 18 1.93 23.45.33 5.43-1.37 9.27-2.63 11.14-.49.73-1.13 1.35-1.72 1.82.23-.31 2.73-3.7 2.64-7.69-.11-4.2-4.84-10.37-6.82-15.32-1.99-4.95-2.59-12.55-2.59-12.55l-.13.17c.07-.13.11-.17.11-.17s2.19-8.75 8.03-13.79c4.38-3.78 10.74-6.78 13.65-8.05-.06.27-.11.54-.14.82-.18 1.67.02 3.1.37 4.28l-1.94 1.22z"/></defs><clipPath id="SVGID_74_"><use xlink:href="#SVGID_73_" style="overflow:visible"/></clipPath><linearGradient id="SVGID_75_" x1="171.609" x2="173.738" y1="299.251" y2="299.251" gradientTransform="matrix(-3.7436 14.0384 -7.7663 -2.071 3225.764 -1573.79)" gradientUnits="userSpaceOnUse"><stop offset="0" style="stop-color:#d49529"/><stop offset=".45" style="stop-color:#fdf8d3"/><stop offset="1" style="stop-color:#d49529"/></linearGradient><path d="m243.38 205.14-15.77 59.08 34.86 9.29 15.76-59.08z" style="clip-path:url(#SVGID_74_);fill:url(#SVGID_75_)"/><defs><path id="SVGID_76_" d="M266.11 226.3c-.54 3.46-.92 8.74.02 14.97 1.72 11.19 15.18 24.51 15.71 29.84.53 5.33-.35 12.82-2.71 17.81-2.05 2.92-3.71 4.87-3.71 4.87s3.19-7.73-.24-17.23c-3.41-9.49-15.09-19.44-18.01-26.26-2.91-6.83-1.7-12.22-1.7-12.22s-.08.06-.19.23c.37-2.38 1.11-4.83 2.34-7.22 2.9-5.65 7.05-9.81 8.75-11.36.17.16.27.25.27.25s-.89.93-.78 3.14c.08 1.54.19 2.66.25 3.18"/></defs><clipPath id="SVGID_77_"><use xlink:href="#SVGID_76_" style="overflow:visible"/></clipPath><linearGradient id="SVGID_78_" x1="172.702" x2="174.83" y1="298.129" y2="298.129" gradientTransform="matrix(-4.5433 18.0738 -9.5147 -2.3918 3897.286 -2182.295)" gradientUnits="userSpaceOnUse"><stop offset="0" style="stop-color:#d49529"/><stop offset=".45" style="stop-color:#fdf8d3"/><stop offset="1" style="stop-color:#d49529"/></linearGradient><path d="m255.93 213.08-19.18 76.3 43.96 11.06 19.17-76.31z" style="clip-path:url(#SVGID_77_);fill:url(#SVGID_78_)"/><path d="m302.35 219.25-12.93-2.8 8.58 8.58 3.06.86.58 6.19 1.14-7.76-3.08-.61c.01 0 1.94-2.64 2.65-4.46" class="st2"/></g><path d="M64.1 46.47c-.98 9.5-1.47 14.25-2.44 23.74 2.99-1.18 4.49-1.76 7.5-2.88-.21 2.19-.32 3.29-.53 5.48-5.63 2.1-8.44 3.21-14.01 5.52 1.03-9.76 2.08-19.52 3.12-29.29 2.53-1.04 3.81-1.56 6.36-2.57zM94.24 35.88c.08 0 .17-.01.26-.04s.19-.06.3-.09c.17-.05.35-.1.54-.15.19-.04.38-.08.58-.12 2.43-.45 4.6.2 6.5 1.99 1.9 1.79 2.66 5.28 2.27 10.44-.06.74-.2 1.71-.42 2.91-.22 1.2-.61 2.48-1.13 3.82-.77 1.97-1.94 3.95-3.55 5.91-1.61 1.95-3.96 3.66-6.8 4.67-.03.01-.07.02-.13.04s-.12.06-.18.09c-.02.01-.08.02-.13.04-.06.02-.12.04-.18.05-.62.19-1.28.33-1.97.41-.7.08-1.4.1-2.07.04-1.65-.16-3.18-1.01-4.5-2.46-1.32-1.45-2.01-4.09-1.78-7.61.01-.17.03-.35.05-.52.02-.17 0-.35 0-.5.03-3.83 1.62-8.03 3.73-11.59 2.11-3.56 4.97-6 8.6-7.28 0-.03 0-.04.01-.05zm-.13 5.05c-1.32.53-2.33 1.43-3.05 2.69-.71 1.26-1.22 2.58-1.54 3.91-.21.89-.38 1.75-.48 2.56-.1.82-.13 1.52-.21 1.95-.02.13-.07.28-.08.44-.01.15-.03.31-.04.46-.04.49-.05 1.01-.03 1.58.02.57.08 1.15.17 1.74.2 1.22.61 2.28 1.21 3.17.6.88 1.45 1.18 2.53.86.06-.02.11-.03.15-.05.04-.01.08-.02.11-.03 1.35-.49 2.57-1.77 3.52-3.57.95-1.81 1.55-4.29 1.8-7.46.03-.38.05-.78.07-1.18.02-.4.03-.81.03-1.21.01-1.76-.28-3.31-.83-4.62-.55-1.31-1.66-1.71-3.35-1.19.02-.03.02-.04.02-.05zM119.26 56.5c.15-2.28.22-3.42.37-5.69.45.32.95.55 1.5.68s1.14.16 1.71.15c.2 0 .42-.01.64-.03.22-.03.44-.06.65-.11 1.08-.24 2.03-.71 2.87-1.39.84-.69 1.41-1.56 1.52-2.48.01-.05.01-.1.01-.13 0-.04 0-.08.01-.13.04-.74-.25-1.34-.86-1.81-.62-.47-1.33-.85-2.09-1.16-.54-.22-1.07-.43-1.57-.61-.5-.17-.89-.37-1.13-.51-1.2-.68-2.29-1.52-2.87-2.62-.58-1.1-.83-2.33-.74-3.68.02-.28.05-.56.1-.83.05-.28.08-.57.14-.84.06-.28.16-.58.25-.87.09-.28.19-.58.3-.88.65-1.72 1.79-3.21 3.28-4.38 1.49-1.17 3.14-1.96 4.93-2.36.47-.1.94-.18 1.41-.23.47-.05.95-.09 1.4-.08.45.01.93.08 1.39.14.46.07.92.17 1.38.3-.12 2.14-.19 3.2-.31 5.34-.85-.43-1.66-.69-2.43-.79-.77-.1-1.48-.11-2.08.01-1.02.2-1.86.68-2.49 1.38-.63.69-.96 1.41-1 2.14-.01.1-.01.2 0 .28.01.09.03.18.05.27.03.18.07.38.16.55.09.17.19.34.3.48.39.5.98.93 1.63 1.28.65.35 1.42.65 2.05 1 .05.03.11.07.17.1.06.03.12.04.17.06.27.08.57.24.86.37.29.13.56.27.81.41 1.13.62 2.05 1.42 2.62 2.42.58 1 .8 2.17.77 3.41-.01.51-.08 1.09-.23 1.68-.15.6-.37 1.23-.68 1.85-.1.19-.2.4-.3.61-.1.21-.22.43-.35.65-.79 1.37-1.91 2.61-3.37 3.73-1.46 1.12-3.17 1.9-5.12 2.33-.9.2-1.84.31-2.81.34-.98.02-1.99-.08-3.03-.31.01-.01.01-.02.01-.04zM185.2 18.46a2482.4 2482.4 0 0 0 7.64 28.12c-2.89.17-4.34.27-7.23.49l-.95-4.7c-2.73.21-4.1.33-6.83.59-.61 1.97-.92 2.95-1.54 4.92-2.74.27-4.11.41-6.84.73 2.92-9.83 5.81-19.68 8.67-29.53 2.83-.28 4.24-.4 7.08-.62zm-1.54 19.82c-1.03-4.93-1.54-7.39-2.55-12.32-.97 5.1-1.46 7.65-2.45 12.75 2-.18 3-.27 5-.43zM213.48 17.2c3.08 7.02 4.64 10.54 7.81 17.62-.02-7.05-.02-10.58-.03-17.63 2.55.02 3.83.04 6.38.1.05 9.56.12 19.11.19 28.67-2.46-.06-3.68-.07-6.14-.1-3.34-6.84-4.99-10.24-8.24-17.02l-.05 17.02c-2.75.03-4.12.06-6.87.13.07-9.56.14-19.11.22-28.67 2.68-.07 4.03-.09 6.73-.12zM266.41 34.39c.06.51.1 1.02.12 1.53.02.71.01 1.36-.03 1.96-.04.6-.07 1.13-.13 1.54-.06.43-.16.92-.27 1.41-.37 1.63-.92 2.98-1.59 3.91-.58.81-1.45 1.55-2.52 2.21-1.07.66-2.53.96-4.25 1.04-.3.01-.59.02-.87 0-.27-.02-.53-.05-.78-.07-4.1-.35-7.18-1.91-9.2-4.78a19.92 19.92 0 0 1-3.64-10.16c-.02-.3-.04-.61-.04-.91-.01-.48 0-.95.02-1.4.02-.45.09-.93.12-1.36.02-.33.11-1.08.35-2.19.24-1.11.69-2.28 1.36-3.5.79-1.44 1.93-2.74 3.45-3.88 1.52-1.14 3.56-1.61 6.12-1.38.57.05 1.16.14 1.79.27.63.13 1.28.31 1.94.52 1.92.63 3.36 1.56 4.3 2.75s1.7 2.93 2.52 4.06c.02.03.05.06.07.08.02.03.02.05.03.08-2.52.55-3.79.83-6.32 1.42-.03-1.09-.42-2-1.15-2.72-.74-.73-1.58-1.16-2.5-1.25-.09-.01-.18-.01-.27-.01-.09.01-.19 0-.27 0-.58 0-1.24.27-1.83.66-.59.39-1.06 1.02-1.44 1.79-.19.38-.36.91-.48 1.57s-.22 1.35-.29 2.04c-.11 1.09-.41 2.93-.13 4.38.01.07.06.19.07.33.02.14.05.32.08.52.05.39.09.91.15 1.51s.15 1.22.29 1.82c.24 1.02.71 2 1.34 2.91.63.91 1.63 1.5 2.9 1.65 1.38.16 2.5-.27 3.23-1.2.73-.93 1.16-2.28 1.29-4.06-1.87-.2-2.8-.3-4.67-.48-.05-2.14-.08-3.21-.13-5.35 4.41.39 6.61.61 11.01 1.12.1.57.19 1.11.25 1.62zM280.16 21.81c5.47.82 8.21 1.28 13.66 2.28.11 2.16.17 3.24.28 5.41-2.66-.49-3.98-.72-6.64-1.17.11 2.39.17 3.59.28 5.98 2.26.38 3.39.57 5.64.98.12 2.28.17 3.43.29 5.71-2.26-.41-3.4-.61-5.66-.99.12 2.51.18 3.77.29 6.28 2.69.45 4.04.69 6.73 1.18.11 2.16.17 3.25.28 5.41-5.56-1.02-8.34-1.49-13.92-2.32-.43-9.59-.83-19.17-1.23-28.75zM314.73 28.48c.61 9.38.91 14.07 1.53 23.46 3.09.73 4.64 1.11 7.72 1.91.15 2.17.23 3.26.38 5.43-5.78-1.49-8.68-2.18-14.49-3.46-.59-9.62-1.17-19.23-1.75-28.85 2.64.59 3.96.89 6.61 1.51zM335.4 33.95c5.35 1.56 8.02 2.39 13.33 4.13.19 2.19.29 3.28.48 5.46-2.59-.85-3.88-1.26-6.48-2.07l.5 6.03c2.21.68 3.3 1.03 5.5 1.75l.5 5.77c-2.21-.72-3.31-1.07-5.52-1.76.21 2.53.32 3.8.53 6.34a384 384 0 0 1 6.56 2.09c.19 2.18.28 3.28.47 5.46-5.41-1.78-8.13-2.62-13.58-4.21-.77-9.66-1.52-19.33-2.29-28.99zM366.4 71.55c-.22-2.3-.33-3.45-.56-5.75a11.955 11.955 0 0 0 3.38 2.83c.2.12.42.25.64.36.22.11.43.2.63.28 1.04.4 1.93.5 2.65.29.73-.21 1.15-.82 1.11-1.68 0-.05-.01-.1-.01-.14 0-.04-.01-.08-.01-.13-.08-.75-.46-1.56-1.16-2.42-.7-.87-1.46-1.69-2.28-2.49-.58-.56-1.14-1.1-1.68-1.59-.53-.49-.94-.92-1.22-1.23-1.36-1.49-2.56-2.99-3.33-4.5-.77-1.51-1.22-2.95-1.35-4.31-.03-.28-.04-.55-.04-.81s-.01-.54.01-.8c.01-.25.07-.51.11-.76.04-.24.09-.5.16-.74.36-1.38 1.28-2.28 2.59-2.6 1.31-.32 2.83-.15 4.56.53a17.16 17.16 0 0 1 2.75 1.38c.46.3.94.64 1.41.99s.94.73 1.42 1.15c.23 2.17.34 3.25.57 5.42-.92-.97-1.77-1.74-2.55-2.31-.78-.57-1.48-1-2.07-1.25-.97-.4-1.75-.41-2.26-.07s-.73.89-.66 1.64c.01.1.03.2.05.3.02.1.06.21.09.32.06.2.13.44.25.67.12.23.25.47.38.68.49.79 1.14 1.57 1.85 2.33.71.76 1.51 1.53 2.21 2.3.06.07.13.14.19.2s.13.11.18.16c.3.27.61.6.92.91.31.31.6.62.88.93 1.24 1.35 2.26 2.73 3 4.13.74 1.4 1.15 2.78 1.31 4.04.07.54.1 1.1.05 1.63-.05.53-.17 1.06-.37 1.53-.06.14-.14.3-.2.45-.07.16-.14.32-.24.48-.56.96-1.47 1.58-2.74 1.87-1.27.29-2.85.07-4.73-.66-.87-.34-1.79-.79-2.77-1.36-.98-.57-2.01-1.29-3.11-2.17-.01-.01-.01-.02-.01-.03z" class="st31"/><linearGradient id="SVGID_79_" x1="126.871" x2="126.871" y1="430.245" y2="384.362" gradientUnits="userSpaceOnUse"><stop offset="0" style="stop-color:#a56f0f"/><stop offset=".25" style="stop-color:#f6d65f"/><stop offset=".5" style="stop-color:#f9da65"/><stop offset=".75" style="stop-color:#f0ee9e"/><stop offset=".99" style="stop-color:#deac47"/></linearGradient><path d="M122.13 383.2h9.47v4.38h-4.59v4.83h3.89v4.64h-3.89v5.07h4.59v4.38h-9.47v-23.3z" style="fill:url(#SVGID_79_);stroke:#000;stroke-width:.1;stroke-miterlimit:10"/><linearGradient id="SVGID_80_" x1="149.104" x2="149.104" y1="430.245" y2="384.362" gradientUnits="userSpaceOnUse"><stop offset="0" style="stop-color:#a56f0f"/><stop offset=".25" style="stop-color:#f6d65f"/><stop offset=".5" style="stop-color:#f9da65"/><stop offset=".75" style="stop-color:#f0ee9e"/><stop offset=".99" style="stop-color:#deac47"/></linearGradient><path d="m145.7 383.2 3.63 15.3 3.43-15.3h4.83l-6.32 23.31h-3.89l-6.78-23.31h5.1z" style="fill:url(#SVGID_80_);stroke:#000;stroke-width:.1;stroke-miterlimit:10"/><linearGradient id="SVGID_81_" x1="174.094" x2="174.094" y1="430.246" y2="384.362" gradientUnits="userSpaceOnUse"><stop offset="0" style="stop-color:#a56f0f"/><stop offset=".25" style="stop-color:#f6d65f"/><stop offset=".5" style="stop-color:#f9da65"/><stop offset=".75" style="stop-color:#f0ee9e"/><stop offset=".99" style="stop-color:#deac47"/></linearGradient><path d="M173.88 383.2c.06.01.12.03.18.03h.23c.12 0 .24 0 .38.02.14.01.27.03.42.05 1.75.22 3.36 1.29 4.82 3.22 1.48 1.93 2.21 4.97 2.21 9.11 0 .6-.05 1.37-.14 2.3-.11.93-.3 1.9-.6 2.88-.44 1.46-1.17 2.8-2.21 4.04-1.04 1.22-2.56 1.94-4.58 2.17h-.09c-.04 0-.09.02-.12.03h-.23c-.42 0-.89-.06-1.39-.17a9.29 9.29 0 0 1-1.48-.51c-1.22-.6-2.35-1.67-3.39-3.24-1.05-1.57-1.66-3.83-1.79-6.79v-.41c0-.13-.01-.27-.03-.42 0-3.33.66-6.18 1.97-8.54 1.31-2.36 3.25-3.61 5.83-3.73v-.04zm.21 4.12c-.92.11-1.61.59-2.05 1.45-.44.84-.74 1.79-.87 2.82-.11.68-.17 1.34-.2 1.99-.02.65-.03 1.17-.03 1.56-.02.09-.03.21-.03.33v.38c0 .39.03.81.09 1.29.04.47.12.96.23 1.47.23 1.07.57 2.05 1.07 2.94.48.87 1.1 1.32 1.85 1.36h.2c.96-.14 1.73-.81 2.3-2.08.59-1.25.87-3.15.87-5.69 0-.31-.02-.63-.02-.96-.02-.33-.03-.66-.04-.98-.11-1.46-.39-2.8-.87-4.02-.47-1.2-1.3-1.82-2.5-1.82v-.04z" style="fill:url(#SVGID_81_);stroke:#000;stroke-width:.1;stroke-miterlimit:10"/><linearGradient id="SVGID_82_" x1="197.05" x2="197.05" y1="430.245" y2="384.362" gradientUnits="userSpaceOnUse"><stop offset="0" style="stop-color:#a56f0f"/><stop offset=".25" style="stop-color:#f6d65f"/><stop offset=".5" style="stop-color:#f9da65"/><stop offset=".75" style="stop-color:#f0ee9e"/><stop offset=".99" style="stop-color:#deac47"/></linearGradient><path d="M196.69 383.2v18.93h5.35v4.38h-9.97V383.2h4.62z" style="fill:url(#SVGID_82_);stroke:#000;stroke-width:.1;stroke-miterlimit:10"/><linearGradient id="SVGID_83_" x1="217.929" x2="217.929" y1="430.247" y2="384.362" gradientUnits="userSpaceOnUse"><stop offset="0" style="stop-color:#a56f0f"/><stop offset=".25" style="stop-color:#f6d65f"/><stop offset=".5" style="stop-color:#f9da65"/><stop offset=".75" style="stop-color:#f0ee9e"/><stop offset=".99" style="stop-color:#deac47"/></linearGradient><path d="M215.63 383.2v16.53c0 1.32.26 2.2.78 2.59.53.39 1.16.59 1.9.59.95 0 1.51-.24 1.69-.69.17-.47.26-.96.26-1.51V383.2h4.35v17.95c0 1.79-.35 3.09-1.04 3.91-.69.83-1.45 1.36-2.29 1.6-.54.16-1.05.27-1.57.3-.5.03-.9.04-1.22.04h-.38c-.38 0-.83-.02-1.37-.04-.56-.03-1.11-.15-1.69-.36-.92-.29-1.78-.9-2.54-1.84-.77-.95-1.2-2.47-1.28-4.55V383.2h4.4z" style="fill:url(#SVGID_83_);stroke:#000;stroke-width:.1;stroke-miterlimit:10"/><linearGradient id="SVGID_84_" x1="240.395" x2="240.395" y1="430.245" y2="384.362" gradientUnits="userSpaceOnUse"><stop offset="0" style="stop-color:#a56f0f"/><stop offset=".25" style="stop-color:#f6d65f"/><stop offset=".5" style="stop-color:#f9da65"/><stop offset=".75" style="stop-color:#f0ee9e"/><stop offset=".99" style="stop-color:#deac47"/></linearGradient><path d="M246.47 383.2v4.62h-3.67v18.69h-4.85v-18.69h-3.63v-4.62h12.15z" style="fill:url(#SVGID_84_);stroke:#000;stroke-width:.1;stroke-miterlimit:10"/><linearGradient id="SVGID_85_" x1="258.33" x2="258.33" y1="430.245" y2="384.362" gradientUnits="userSpaceOnUse"><stop offset="0" style="stop-color:#a56f0f"/><stop offset=".25" style="stop-color:#f6d65f"/><stop offset=".5" style="stop-color:#f9da65"/><stop offset=".75" style="stop-color:#f0ee9e"/><stop offset=".99" style="stop-color:#deac47"/></linearGradient><path d="M260.52 383.2v23.31h-4.38V383.2h4.38z" style="fill:url(#SVGID_85_);stroke:#000;stroke-width:.1;stroke-miterlimit:10"/><linearGradient id="SVGID_86_" x1="278.463" x2="278.463" y1="430.246" y2="384.362" gradientUnits="userSpaceOnUse"><stop offset="0" style="stop-color:#a56f0f"/><stop offset=".25" style="stop-color:#f6d65f"/><stop offset=".5" style="stop-color:#f9da65"/><stop offset=".75" style="stop-color:#f0ee9e"/><stop offset=".99" style="stop-color:#deac47"/></linearGradient><path d="M278.24 383.2c.08.01.14.03.2.03h.21c.12 0 .26 0 .39.02.13.01.27.03.41.05 1.75.22 3.36 1.29 4.83 3.22 1.46 1.93 2.2 4.97 2.2 9.11 0 .6-.05 1.37-.14 2.3-.09.93-.29 1.9-.6 2.88-.44 1.46-1.16 2.8-2.2 4.04-1.04 1.22-2.58 1.94-4.58 2.17h-.11c-.03 0-.08.02-.12.03h-.21c-.44 0-.89-.06-1.39-.17-.5-.12-.99-.29-1.49-.51-1.21-.6-2.33-1.67-3.39-3.24-1.04-1.57-1.64-3.83-1.79-6.79v-.41c0-.13 0-.27-.03-.42 0-3.33.66-6.18 1.97-8.54 1.33-2.36 3.27-3.61 5.83-3.73v-.04zm.23 4.12c-.93.11-1.61.59-2.05 1.45-.45.84-.74 1.79-.89 2.82-.11.68-.17 1.34-.18 1.99-.02.65-.03 1.17-.03 1.56-.01.09-.03.21-.03.33v.38c0 .39.03.81.08 1.29.04.47.14.96.23 1.47.23 1.07.59 2.05 1.07 2.94.48.87 1.1 1.32 1.87 1.36h.19c.96-.14 1.75-.81 2.32-2.08.57-1.25.86-3.15.86-5.69 0-.31 0-.63-.02-.96-.01-.33-.03-.66-.04-.98-.11-1.46-.39-2.8-.86-4.02-.48-1.2-1.31-1.82-2.5-1.82v-.04z" style="fill:url(#SVGID_86_);stroke:#000;stroke-width:.1;stroke-miterlimit:10"/><linearGradient id="SVGID_87_" x1="303.618" x2="303.618" y1="430.245" y2="384.362" gradientUnits="userSpaceOnUse"><stop offset="0" style="stop-color:#a56f0f"/><stop offset=".25" style="stop-color:#f6d65f"/><stop offset=".5" style="stop-color:#f9da65"/><stop offset=".75" style="stop-color:#f0ee9e"/><stop offset=".99" style="stop-color:#deac47"/></linearGradient><path d="m301.07 383.2 5.33 14.33V383.2h4.38v23.31h-4.13l-5.59-13.84v13.84h-4.62V383.2h4.63z" style="fill:url(#SVGID_87_);stroke:#000;stroke-width:.1;stroke-miterlimit:10"/></svg>