<?xml version="1.0" encoding="utf-8"?>
<!-- Generator: Adobe Illustrator 24.0.1, SVG Export Plug-In . SVG Version: 6.00 Build 0)  -->
<svg version="1.1" id="Camada_1" xmlns="http://www.w3.org/2000/svg" xmlns:xlink="http://www.w3.org/1999/xlink" x="0px" y="0px"
	 viewBox="0 0 487.5 487.5" style="enable-background:new 0 0 487.5 487.5;" xml:space="preserve">
<style type="text/css">
	.st0{fill:#031830;}
	.st1{fill:#072A57;}
	.st2{fill:#D49529;}
	.st3{display:none;}
	.st4{display:inline;}
	.st5{clip-path:url(#SVGID_2_);fill:url(#SVGID_3_);}
	.st6{clip-path:url(#SVGID_5_);fill:url(#SVGID_6_);}
	.st7{clip-path:url(#SVGID_8_);fill:url(#SVGID_9_);}
	.st8{clip-path:url(#SVGID_11_);fill:url(#SVGID_12_);}
	.st9{clip-path:url(#SVGID_14_);fill:url(#SVGID_15_);}
	.st10{clip-path:url(#SVGID_17_);fill:url(#SVGID_18_);}
	.st11{clip-path:url(#SVGID_20_);fill:url(#SVGID_21_);}
	.st12{clip-path:url(#SVGID_23_);fill:url(#SVGID_24_);}
	.st13{clip-path:url(#SVGID_26_);fill:url(#SVGID_27_);}
	.st14{display:inline;fill-rule:evenodd;clip-rule:evenodd;fill:#FFFFFF;}
	.st15{fill:url(#SVGID_28_);}
	.st16{fill:url(#SVGID_29_);}
	.st17{fill:url(#SVGID_30_);}
	.st18{fill:url(#SVGID_31_);}
	.st19{fill:url(#SVGID_32_);}
	.st20{fill:url(#SVGID_33_);}
</style>
<circle class="st0" cx="243.8" cy="243.7" r="216"/>
<circle class="st1" cx="243.8" cy="243.7" r="210.3"/>
<circle class="st0" cx="243.8" cy="243.7" r="194.8"/>
<path class="st2" d="M433.4,243.7c0,46-16.4,88.2-43.6,121c-8.3,10-17.5,19-27.6,27.1c-32.5,26-73.6,41.5-118.4,41.5
	s-86-15.5-118.4-41.5c-10.1-8.1-19.3-17.2-27.6-27.1c-27.2-32.8-43.6-75-43.6-121C54.1,139,139,54.1,243.8,54.1
	S433.4,139,433.4,243.7z"/>
<g class="st3">
	<g class="st4">
		<g>
			<defs>
				<path id="SVGID_1_" d="M258.2,261.4c2.8,7.6,5.5,15.1,8,22.8c2.3,6.8,5.3,13.8,8,20.6c3.6,9.2,7.2,18.4,10,28.1
					c6.7,22.8,9,46.4,1.3,69.3l-0.3,0.9c21.1-27,36.8-49,36.8-49s-14.6-29.9-31.2-65.4C279.9,279.6,269,270.5,258.2,261.4
					L258.2,261.4z"/>
			</defs>
			<clipPath id="SVGID_2_">
				<use xlink:href="#SVGID_1_"  style="overflow:visible;"/>
			</clipPath>
			
				<linearGradient id="SVGID_3_" gradientUnits="userSpaceOnUse" x1="-44.1238" y1="966.4112" x2="-43.3055" y2="966.4112" gradientTransform="matrix(23.7016 123.4099 72.9333 -14.0051 -69157.2969 19262.084)">
				<stop  offset="0" style="stop-color:#D5962A"/>
				<stop  offset="0.58" style="stop-color:#FEF9D4"/>
				<stop  offset="1" style="stop-color:#D5962A"/>
			</linearGradient>
			<polygon class="st5" points="231.9,266.4 260.5,414.9 348.2,398 319.7,249.5 			"/>
		</g>
	</g>
	<g class="st4">
		<g>
			<defs>
				<path id="SVGID_4_" d="M174.9,62.6c0,0,15.4-8.2,25.9-8.2c10.5,0,14.2,4.6,14.2,4.6s-25,0.9-30.5,11
					c-5.4,10.2-2.8,23.5-2.8,23.5s11.3-19,22-22c10.7-3,37.7-20.3,37.7-20.3s-18.5-16.8-33.8-16.8C192.3,34.5,174.9,62.6,174.9,62.6
					 M171.2,122.6c-0.6-11.3,4-16.2,4-16.2s-19.1-14.8-15.9-44c3.1-29.3,41.7-42.7,55.9-41.2c14.2,1.4,38.1,23.5,38.1,23.5
					s13.1-0.3,17.8,7.9c0,0-63.4,29.3-72.7,38.9c-9.4,9.7-25.8,49.1-25.8,49.1S171.8,134,171.2,122.6 M37.8,87.1
					c5.2,17.9-6.2,36.5-16,52.4c-7.9,12.8-19.1,45-21.8,65.6c8.1,24.3,16.9,42.4,16.9,42.4S20.8,226,30,204
					c9.1-22.1,18.3-33.1,18.3-33.1s3.1,39.1,13.4,64.8c10.2,25.5,34.6,57.4,35.1,79.1c0.6,21.7-13.7,39.9-13.7,39.9
					s25.4-7.1,34.8-35.8c9.4-28.7-1.4-55.1-1.4-55.1s-8.2-17.9-6-38.9c2.3-21.1,7.1-25,7.1-25s-6.3,27.9,8.8,63.1
					c15.1,35.1,75.3,86.6,92.9,135.5c17.8,49,1.3,89,1.3,89s39.6-46.5,53.7-89.1c14.2-42.6-11.6-86.9-19.3-110.7
					c-7.7-23.9-13.6-34.3-13.9-48.9c-0.3-14.5,17-22.5,17-22.5l-8.8,22.2c0,0,42,35.4,55.4,46.6c13.3,11.1,16.2,13,16.2,13
					s47.6-32.1,52-40.3c4.2-8.2,5.4-14.2,5.4-14.2l-37.5,12.5l-44-27.9c0,0,25-26.9,41.2-35.2s25.3-6.5,25.3-6.5l-19.5,11.9
					l50.2,33.8c0,0,2,13.1-9.8,35.8c0,0,41.9-22.4,51.9-34.1c10-11.7,10-12.2,10-12.2l-23.9-42c0,0,17.1-8,22.3-8.5
					c5.1-0.4,14.2,1.9,14.2,1.9l-22.2,8.9l15.1,30.5c0,0,11.5-8.8,22.7-22.7c11.1-13.8,12.6-18.1,12.6-18.1S441.3,138,412.7,122
					c-28.6-15.9-30.4-18.8-30.4-18.8l3.6-35.9c0,0-129.4-58.1-163.6-67.3c-1.3-0.3-2.7-0.5-4.4-0.5C187-0.5,91,55,37.8,87.1"/>
			</defs>
			<clipPath id="SVGID_5_">
				<use xlink:href="#SVGID_4_"  style="overflow:visible;"/>
			</clipPath>
			
				<linearGradient id="SVGID_6_" gradientUnits="userSpaceOnUse" x1="-51.0723" y1="969.4297" x2="-50.2539" y2="969.4297" gradientTransform="matrix(0 594.7715 -594.7715 0 576832.5625 30620.2051)">
				<stop  offset="0" style="stop-color:#052A57"/>
				<stop  offset="0.5352" style="stop-color:#FEF9D4"/>
				<stop  offset="1" style="stop-color:#052A57"/>
			</linearGradient>
			<rect y="-0.5" class="st6" width="486.8" height="487.9"/>
		</g>
	</g>
	<g class="st4">
		<g>
			<defs>
				<path id="SVGID_7_" d="M174.9,62.6c0,0,15.4-8.2,25.9-8.2c10.5,0,14.2,4.6,14.2,4.6s-25,0.9-30.5,11
					c-5.4,10.2-2.8,23.5-2.8,23.5s11.3-19,22-22c10.7-3,37.7-20.3,37.7-20.3s-18.5-16.8-33.8-16.8C192.3,34.5,174.9,62.6,174.9,62.6
					 M171.2,122.6c-0.6-11.3,4-16.2,4-16.2s-19.1-14.8-15.9-44c3.1-29.3,41.7-42.7,55.9-41.2c14.2,1.4,38.1,23.5,38.1,23.5
					s13.1-0.3,17.8,7.9c0,0-63.4,29.3-72.7,38.9c-9.4,9.7-25.9,49.1-25.9,49.1S171.8,134,171.2,122.6 M37.8,87.1
					c5.2,17.9-6.2,36.5-16,52.4c-7.9,12.8-19.1,45-21.8,65.6c8.1,24.3,16.9,42.4,16.9,42.4S20.8,226,30,204
					c9.1-22.1,18.3-33.1,18.3-33.1s3.1,39.1,13.4,64.8c10.2,25.5,34.6,57.4,35.1,79.1c0.6,21.7-13.7,39.9-13.7,39.9
					s25.4-7.1,34.8-35.8c9.4-28.7-1.4-55.1-1.4-55.1s-8.2-17.9-6-38.9c2.3-21.1,7.1-25,7.1-25s-6.3,27.9,8.8,63.1
					c15.1,35.1,75.3,86.6,92.9,135.5c17.8,49,1.3,89,1.3,89s39.6-46.5,53.7-89.1c14.2-42.6-11.6-86.9-19.3-110.7
					c-7.7-23.9-13.6-34.3-13.9-48.9c-0.3-14.5,17-22.5,17-22.5l-8.8,22.2c0,0,42,35.4,55.4,46.6c13.3,11.1,16.2,13,16.2,13
					s47.6-32.1,52-40.3c4.2-8.2,5.4-14.2,5.4-14.2l-37.5,12.5l-44-27.9c0,0,25-26.9,41.2-35.2s25.3-6.5,25.3-6.5l-19.5,11.9
					l50.2,33.8c0,0,2,13.1-9.8,35.8c0,0,41.9-22.4,51.9-34c10-11.7,10-12.2,10-12.2l-23.9-42c0,0,17.1-8,22.3-8.5
					c5.1-0.4,14.2,1.9,14.2,1.9l-22.2,8.9l15.1,30.5c0,0,11.5-8.8,22.7-22.7c11.1-13.8,12.6-18.1,12.6-18.1S441.3,138,412.7,122
					c-28.6-15.9-30.4-18.8-30.4-18.8l3.6-35.9c0,0-129.4-58.1-163.6-67.3c-1.3-0.3-2.7-0.5-4.4-0.5C187-0.5,91,55,37.8,87.1"/>
			</defs>
			<clipPath id="SVGID_8_">
				<use xlink:href="#SVGID_7_"  style="overflow:visible;"/>
			</clipPath>
			
				<linearGradient id="SVGID_9_" gradientUnits="userSpaceOnUse" x1="-54.9295" y1="966.7723" x2="-54.111" y2="966.7723" gradientTransform="matrix(278.6178 -196.3616 -203.1457 -288.2421 211931.6875 268130.1875)">
				<stop  offset="0" style="stop-color:#D5962A"/>
				<stop  offset="0.58" style="stop-color:#FEF9D4"/>
				<stop  offset="1" style="stop-color:#D5962A"/>
			</linearGradient>
			<polygon class="st7" points="161.5,716.7 716.5,325.5 325.2,-229.7 -229.8,161.5 			"/>
		</g>
	</g>
	<g class="st4">
		<g>
			<defs>
				<path id="SVGID_10_" d="M200.9,45c-9.6,2.8-21.7,13.6-25.9,17.6c1.2-0.6,15.7-8.2,25.8-8.2c10.5,0,14.2,4.6,14.2,4.6
					s-25,0.9-30.5,11c-5.1,9.7-3,22.1-2.8,23.5c1.9-6.6,5-15.1,8.2-19.1c5.7-7.1,24.8-8.6,30.8-13.7c5.9-5,9.1-7.8,9.1-7.8
					s-12.9-8.5-24.1-8.5C204,44.4,202.4,44.5,200.9,45"/>
			</defs>
			<clipPath id="SVGID_11_">
				<use xlink:href="#SVGID_10_"  style="overflow:visible;"/>
			</clipPath>
			
				<linearGradient id="SVGID_12_" gradientUnits="userSpaceOnUse" x1="-29.7838" y1="987.5955" x2="-28.9652" y2="987.5955" gradientTransform="matrix(-24.7191 31.9165 31.8241 24.6511 -31950.7891 -23341.7852)">
				<stop  offset="0" style="stop-color:#D5962A"/>
				<stop  offset="0.45" style="stop-color:#FEF9D4"/>
				<stop  offset="1" style="stop-color:#D5962A"/>
			</linearGradient>
			<polygon class="st8" points="195.5,17.8 151.2,75.1 209.2,120 253.6,62.8 			"/>
		</g>
	</g>
	<g class="st4">
		<g>
			<defs>
				<path id="SVGID_13_" d="M443.9,171.4L443.9,171.4c0,0,0.1,0,0.1,0C443.9,171.3,443.9,171.3,443.9,171.4 M444,171.3
					c0.2,0,0.2,0,0.4,0c5.1-0.4,14.2,1.9,14.2,1.9l-22.2,8.9l15.1,30.5c0,0,11.5-8.8,22.7-22.7c11.1-13.8,12.6-18.1,12.6-18.1
					s-13.5-2.3-24.8-2.9c-0.9,0-1.7-0.1-2.5-0.1C450.3,168.8,444.7,171.1,444,171.3 M353,137l-15.8-4.4l-44.3-44.3l66.8,14.5
					c-3.6,9.4-13.6,23.1-13.6,23.1l15.9,3.1l-5.9,40L353,137z M326.1,138.1c0,0,2.1,14.7-15.1,31.5c-8.9,8.7-19.3,16-28.2,21.5
					l78.4-17.9l2.6-25.1l54.2,29.2c0,0,13.6,35.8,12.8,44.5c-0.9,8.9-46.7,46.2-46.7,46.2s41.9-22.4,51.9-34
					c10-11.7,10-12.2,10-12.2l-23.9-42c0,0,16.2-7.6,21.8-8.4l-80-48.7l13.4-24.5c-38.4-26.1-56.1-16.1-107-22.9L326.1,138.1z"/>
			</defs>
			<clipPath id="SVGID_14_">
				<use xlink:href="#SVGID_13_"  style="overflow:visible;"/>
			</clipPath>
			
				<linearGradient id="SVGID_15_" gradientUnits="userSpaceOnUse" x1="-47.2563" y1="971.451" x2="-46.4378" y2="971.451" gradientTransform="matrix(-68.5571 179.3428 178.0392 68.0561 -175807.9531 -57493.25)">
				<stop  offset="0" style="stop-color:#D5962A"/>
				<stop  offset="0.45" style="stop-color:#FEF9D4"/>
				<stop  offset="1" style="stop-color:#D5962A"/>
			</linearGradient>
			<polygon class="st9" points="297.9,-0.1 204.9,243 459.2,340.2 552.1,97 			"/>
		</g>
	</g>
	<g class="st4">
		<g>
			<defs>
				<path id="SVGID_16_" d="M258.2,261.4c2.8,7.6,5.5,15.1,8,22.8c2.3,6.8,5.3,13.8,8,20.6c3.6,9.2,7.2,18.4,10,28.1
					c6.7,22.7,9,46.3,1.4,69.2v0.6l0.7-1l22.7-48.7c0,0-6.2-13.6-16.5-31.6c-7.7-13.3-23.1-42.6-30.3-56.7L258.2,261.4L258.2,261.4z
					"/>
			</defs>
			<clipPath id="SVGID_17_">
				<use xlink:href="#SVGID_16_"  style="overflow:visible;"/>
			</clipPath>
			
				<linearGradient id="SVGID_18_" gradientUnits="userSpaceOnUse" x1="-42.0369" y1="963.7495" x2="-41.2184" y2="963.7495" gradientTransform="matrix(28.4749 94.7427 56.4293 -16.9585 -52914.7891 20619.5879)">
				<stop  offset="0" style="stop-color:#D5962A"/>
				<stop  offset="0.58" style="stop-color:#FEF9D4"/>
				<stop  offset="1" style="stop-color:#D5962A"/>
			</linearGradient>
			<polygon class="st10" points="219.3,273.1 262.4,416.6 347.9,390.9 304.8,247.4 			"/>
		</g>
	</g>
	<g class="st4">
		<g>
			<defs>
				<path id="SVGID_19_" d="M37.8,87.1c5.2,17.9-6.2,36.5-16,52.4c-7.9,12.8-19.1,45-21.8,65.6c8.1,24.3,16.9,42.4,16.9,42.4
					s-2.4-60.4,15.7-103.3C50.9,101.4,84.1,63,143,31.5c35.6-19,57-27.6,68.4-31.3C175.4,6.2,87.7,56.9,37.8,87.1"/>
			</defs>
			<clipPath id="SVGID_20_">
				<use xlink:href="#SVGID_19_"  style="overflow:visible;"/>
			</clipPath>
			
				<linearGradient id="SVGID_21_" gradientUnits="userSpaceOnUse" x1="-47.4171" y1="973.1223" x2="-46.5986" y2="973.1223" gradientTransform="matrix(-92.9055 156.2963 145.3025 86.3704 -145644.75 -76601.4141)">
				<stop  offset="0" style="stop-color:#D5962A"/>
				<stop  offset="0.45" style="stop-color:#FEF9D4"/>
				<stop  offset="1" style="stop-color:#D5962A"/>
			</linearGradient>
			<polygon class="st11" points="55.2,-92.7 -108.6,182.9 156.2,340.3 320,64.7 			"/>
		</g>
	</g>
	<g class="st4">
		<g>
			<defs>
				<path id="SVGID_22_" d="M89.5,99.7c-30.1,26-41.4,71.2-41.4,71.2s-0.2,0.2-0.5,0.9l0.7-0.9c0,0,3.1,39.1,13.4,64.8
					c10.2,25.5,34.6,57.4,35.1,79.1c0.6,20.6-12.4,38.2-13.6,39.7c3.1-2.4,6.4-5.6,8.9-9.4c6.5-9.7,15.3-29.5,13.6-57.5
					c-1.7-28.2-25.7-66.2-10-121.1c15.7-54.8,55.5-75.7,55.5-75.7l9.9-6.3c-1.8-6.1-2.8-13.5-1.9-22.1c0.1-1.5,0.4-3,0.7-4.3
					C145.1,64.7,112.2,80.1,89.5,99.7"/>
			</defs>
			<clipPath id="SVGID_23_">
				<use xlink:href="#SVGID_22_"  style="overflow:visible;"/>
			</clipPath>
			
				<linearGradient id="SVGID_24_" gradientUnits="userSpaceOnUse" x1="-47.1773" y1="972.4484" x2="-46.3589" y2="972.4484" gradientTransform="matrix(-50.2559 188.4621 104.2613 27.8027 -103622.6328 -18061.748)">
				<stop  offset="0" style="stop-color:#D5962A"/>
				<stop  offset="0.45" style="stop-color:#FEF9D4"/>
				<stop  offset="1" style="stop-color:#D5962A"/>
			</linearGradient>
			<polygon class="st12" points="55.1,29.8 -26.2,334.8 153.7,382.8 235,77.7 			"/>
		</g>
	</g>
	<g class="st4">
		<g>
			<defs>
				<path id="SVGID_25_" d="M128.7,163.8c-6.4,12.4-10.2,24.9-12.1,37.2c0.6-0.9,1-1.2,1-1.2s-6.3,27.9,8.8,63.1
					c15.1,35.1,75.3,86.6,92.9,135.5c17.8,49,1.3,89,1.3,89s8.6-10,19.2-25.1c12.2-25.8,16.8-64.4,14-92
					c-2.7-27.5-72.2-96.3-81.1-154c-4.9-32.2-2.9-59.4-0.1-77.3c-0.3-2.6-0.9-8.4-1.2-16.5c-0.6-11.3,4-16.2,4-16.2
					s-0.5-0.4-1.4-1.3C165.1,113.2,143.7,134.6,128.7,163.8"/>
			</defs>
			<clipPath id="SVGID_26_">
				<use xlink:href="#SVGID_25_"  style="overflow:visible;"/>
			</clipPath>
			
				<linearGradient id="SVGID_27_" gradientUnits="userSpaceOnUse" x1="-48.4681" y1="971.6147" x2="-47.6497" y2="971.6147" gradientTransform="matrix(-60.9651 242.5181 127.6693 32.0948 -126776.4688 -19291.6816)">
				<stop  offset="0" style="stop-color:#D5962A"/>
				<stop  offset="0.45" style="stop-color:#FEF9D4"/>
				<stop  offset="1" style="stop-color:#D5962A"/>
			</linearGradient>
			<polygon class="st13" points="119.9,70.8 20.9,464.7 247.9,521.8 346.9,127.9 			"/>
		</g>
	</g>
	<path class="st14" d="M359.6,102.7l-66.8-14.4l44.3,44.3l15.8,4.4l3,32l5.9-40l-15.9-3.1C346,125.8,355.9,112.1,359.6,102.7"/>
</g>
<linearGradient id="SVGID_28_" gradientUnits="userSpaceOnUse" x1="-51.4595" y1="970.3374" x2="-51.4377" y2="970.3374" gradientTransform="matrix(0 594.7715 -594.7715 0 576832.5625 30620.2051)">
	<stop  offset="0" style="stop-color:#052A57"/>
	<stop  offset="0.5352" style="stop-color:#FEF9D4"/>
	<stop  offset="1" style="stop-color:#052A57"/>
</linearGradient>
<path class="st15" d="M-294.9,7.5c-0.9-0.2-2-0.4-3.2-0.4C-296.9,7.1-295.8,7.2-294.9,7.5"/>
<linearGradient id="SVGID_29_" gradientUnits="userSpaceOnUse" x1="-51.1333" y1="970.354" x2="-50.4619" y2="970.354" gradientTransform="matrix(0 594.7715 -594.7715 0 576832.5625 30620.2051)">
	<stop  offset="0" style="stop-color:#052A57"/>
	<stop  offset="0.5352" style="stop-color:#FEF9D4"/>
	<stop  offset="1" style="stop-color:#052A57"/>
</linearGradient>
<path class="st16" d="M-305.7,7.6L-305.7,7.6c-0.4,0.1-0.9,0.2-1.3,0.2C-306.6,7.8-306.1,7.7-305.7,7.6
	C-305.7,7.6-305.7,7.6-305.7,7.6z"/>
<linearGradient id="SVGID_30_" gradientUnits="userSpaceOnUse" x1="-56.1477" y1="968.2169" x2="-55.4046" y2="968.2169" gradientTransform="matrix(278.6178 -196.3616 -203.1457 -288.2421 211931.6875 268130.1875)">
	<stop  offset="0" style="stop-color:#D5962A"/>
	<stop  offset="0.58" style="stop-color:#FEF9D4"/>
	<stop  offset="1" style="stop-color:#D5962A"/>
</linearGradient>
<path class="st17" d="M-305.7,7.6L-305.7,7.6c-0.4,0.1-0.9,0.2-1.3,0.2C-306.6,7.8-306.1,7.7-305.7,7.6
	C-305.7,7.6-305.7,7.6-305.7,7.6z"/>
<linearGradient id="SVGID_31_" gradientUnits="userSpaceOnUse" x1="-51.1333" y1="970.354" x2="-50.4619" y2="970.354" gradientTransform="matrix(0 594.7715 -594.7715 0 576832.5625 30620.2051)">
	<stop  offset="0" style="stop-color:#052A57"/>
	<stop  offset="0.5352" style="stop-color:#FEF9D4"/>
	<stop  offset="1" style="stop-color:#052A57"/>
</linearGradient>
<path class="st18" d="M-305.7,7.6L-305.7,7.6c-0.4,0.1-0.9,0.2-1.3,0.2C-306.6,7.8-306.1,7.7-305.7,7.6
	C-305.7,7.6-305.7,7.6-305.7,7.6z"/>
<linearGradient id="SVGID_32_" gradientUnits="userSpaceOnUse" x1="-56.1472" y1="968.2169" x2="-55.404" y2="968.2169" gradientTransform="matrix(278.6178 -196.3616 -203.1457 -288.2421 211931.6875 268130.1875)">
	<stop  offset="0" style="stop-color:#D5962A"/>
	<stop  offset="0.58" style="stop-color:#FEF9D4"/>
	<stop  offset="1" style="stop-color:#D5962A"/>
</linearGradient>
<path class="st19" d="M-305.7,7.6L-305.7,7.6c-0.4,0.1-0.9,0.2-1.3,0.2C-306.6,7.8-306.1,7.7-305.7,7.6
	C-305.7,7.6-305.7,7.6-305.7,7.6z"/>
<linearGradient id="SVGID_33_" gradientUnits="userSpaceOnUse" x1="-45.9333" y1="970.676" x2="-45.1269" y2="970.676" gradientTransform="matrix(-92.9055 156.2963 145.3025 86.3704 -145644.75 -76601.4141)">
	<stop  offset="0" style="stop-color:#D5962A"/>
	<stop  offset="0.45" style="stop-color:#FEF9D4"/>
	<stop  offset="1" style="stop-color:#D5962A"/>
</linearGradient>
<path class="st20" d="M-305.7,7.6L-305.7,7.6c-0.4,0.1-0.9,0.2-1.3,0.2C-306.6,7.8-306.1,7.7-305.7,7.6
	C-305.7,7.6-305.7,7.6-305.7,7.6z"/>
<circle class="st1" cx="243.8" cy="206.9" r="97.9"/>
<path class="st1" d="M389.8,364.7c-8.3,10-17.5,19-27.6,27.1c-32.5,26-73.6,41.5-118.4,41.5s-86-15.5-118.4-41.5
	c-10.1-8.1-19.3-17.2-27.6-27.1c24.8-41.9,80.8-71.1,146-71.1S364.9,322.8,389.8,364.7z"/>
</svg>
